%TF.GenerationSoftware,KiCad,Pcbnew,9.0.0*%
%TF.CreationDate,2025-03-28T01:08:04+02:00*%
%TF.ProjectId,MM,4d4d2e6b-6963-4616-945f-706362585858,rev?*%
%TF.SameCoordinates,Original*%
%TF.FileFunction,Legend,Top*%
%TF.FilePolarity,Positive*%
%FSLAX46Y46*%
G04 Gerber Fmt 4.6, Leading zero omitted, Abs format (unit mm)*
G04 Created by KiCad (PCBNEW 9.0.0) date 2025-03-28 01:08:04*
%MOMM*%
%LPD*%
G01*
G04 APERTURE LIST*
%ADD10C,0.100000*%
%ADD11C,0.150000*%
%ADD12C,0.120000*%
G04 APERTURE END LIST*
D10*
X192372419Y-91505639D02*
X192372419Y-91315163D01*
X192372419Y-91315163D02*
X192420038Y-91219925D01*
X192420038Y-91219925D02*
X192515276Y-91124687D01*
X192515276Y-91124687D02*
X192705752Y-91077068D01*
X192705752Y-91077068D02*
X193039085Y-91077068D01*
X193039085Y-91077068D02*
X193229561Y-91124687D01*
X193229561Y-91124687D02*
X193324800Y-91219925D01*
X193324800Y-91219925D02*
X193372419Y-91315163D01*
X193372419Y-91315163D02*
X193372419Y-91505639D01*
X193372419Y-91505639D02*
X193324800Y-91600877D01*
X193324800Y-91600877D02*
X193229561Y-91696115D01*
X193229561Y-91696115D02*
X193039085Y-91743734D01*
X193039085Y-91743734D02*
X192705752Y-91743734D01*
X192705752Y-91743734D02*
X192515276Y-91696115D01*
X192515276Y-91696115D02*
X192420038Y-91600877D01*
X192420038Y-91600877D02*
X192372419Y-91505639D01*
X192848609Y-90315163D02*
X192848609Y-90648496D01*
X193372419Y-90648496D02*
X192372419Y-90648496D01*
X192372419Y-90648496D02*
X192372419Y-90172306D01*
X192848609Y-89458020D02*
X192848609Y-89791353D01*
X193372419Y-89791353D02*
X192372419Y-89791353D01*
X192372419Y-89791353D02*
X192372419Y-89315163D01*
X192372419Y-76505639D02*
X192372419Y-76315163D01*
X192372419Y-76315163D02*
X192420038Y-76219925D01*
X192420038Y-76219925D02*
X192515276Y-76124687D01*
X192515276Y-76124687D02*
X192705752Y-76077068D01*
X192705752Y-76077068D02*
X193039085Y-76077068D01*
X193039085Y-76077068D02*
X193229561Y-76124687D01*
X193229561Y-76124687D02*
X193324800Y-76219925D01*
X193324800Y-76219925D02*
X193372419Y-76315163D01*
X193372419Y-76315163D02*
X193372419Y-76505639D01*
X193372419Y-76505639D02*
X193324800Y-76600877D01*
X193324800Y-76600877D02*
X193229561Y-76696115D01*
X193229561Y-76696115D02*
X193039085Y-76743734D01*
X193039085Y-76743734D02*
X192705752Y-76743734D01*
X192705752Y-76743734D02*
X192515276Y-76696115D01*
X192515276Y-76696115D02*
X192420038Y-76600877D01*
X192420038Y-76600877D02*
X192372419Y-76505639D01*
X193372419Y-75648496D02*
X192372419Y-75648496D01*
X192372419Y-75648496D02*
X193372419Y-75077068D01*
X193372419Y-75077068D02*
X192372419Y-75077068D01*
X118827693Y-108700150D02*
X118732455Y-108652531D01*
X118732455Y-108652531D02*
X118589598Y-108652531D01*
X118589598Y-108652531D02*
X118446741Y-108700150D01*
X118446741Y-108700150D02*
X118351503Y-108795388D01*
X118351503Y-108795388D02*
X118303884Y-108890626D01*
X118303884Y-108890626D02*
X118256265Y-109081102D01*
X118256265Y-109081102D02*
X118256265Y-109223959D01*
X118256265Y-109223959D02*
X118303884Y-109414435D01*
X118303884Y-109414435D02*
X118351503Y-109509673D01*
X118351503Y-109509673D02*
X118446741Y-109604912D01*
X118446741Y-109604912D02*
X118589598Y-109652531D01*
X118589598Y-109652531D02*
X118684836Y-109652531D01*
X118684836Y-109652531D02*
X118827693Y-109604912D01*
X118827693Y-109604912D02*
X118875312Y-109557292D01*
X118875312Y-109557292D02*
X118875312Y-109223959D01*
X118875312Y-109223959D02*
X118684836Y-109223959D01*
X119875312Y-109652531D02*
X119541979Y-109176340D01*
X119303884Y-109652531D02*
X119303884Y-108652531D01*
X119303884Y-108652531D02*
X119684836Y-108652531D01*
X119684836Y-108652531D02*
X119780074Y-108700150D01*
X119780074Y-108700150D02*
X119827693Y-108747769D01*
X119827693Y-108747769D02*
X119875312Y-108843007D01*
X119875312Y-108843007D02*
X119875312Y-108985864D01*
X119875312Y-108985864D02*
X119827693Y-109081102D01*
X119827693Y-109081102D02*
X119780074Y-109128721D01*
X119780074Y-109128721D02*
X119684836Y-109176340D01*
X119684836Y-109176340D02*
X119303884Y-109176340D01*
X120494360Y-108652531D02*
X120684836Y-108652531D01*
X120684836Y-108652531D02*
X120780074Y-108700150D01*
X120780074Y-108700150D02*
X120875312Y-108795388D01*
X120875312Y-108795388D02*
X120922931Y-108985864D01*
X120922931Y-108985864D02*
X120922931Y-109319197D01*
X120922931Y-109319197D02*
X120875312Y-109509673D01*
X120875312Y-109509673D02*
X120780074Y-109604912D01*
X120780074Y-109604912D02*
X120684836Y-109652531D01*
X120684836Y-109652531D02*
X120494360Y-109652531D01*
X120494360Y-109652531D02*
X120399122Y-109604912D01*
X120399122Y-109604912D02*
X120303884Y-109509673D01*
X120303884Y-109509673D02*
X120256265Y-109319197D01*
X120256265Y-109319197D02*
X120256265Y-108985864D01*
X120256265Y-108985864D02*
X120303884Y-108795388D01*
X120303884Y-108795388D02*
X120399122Y-108700150D01*
X120399122Y-108700150D02*
X120494360Y-108652531D01*
X121351503Y-108652531D02*
X121351503Y-109462054D01*
X121351503Y-109462054D02*
X121399122Y-109557292D01*
X121399122Y-109557292D02*
X121446741Y-109604912D01*
X121446741Y-109604912D02*
X121541979Y-109652531D01*
X121541979Y-109652531D02*
X121732455Y-109652531D01*
X121732455Y-109652531D02*
X121827693Y-109604912D01*
X121827693Y-109604912D02*
X121875312Y-109557292D01*
X121875312Y-109557292D02*
X121922931Y-109462054D01*
X121922931Y-109462054D02*
X121922931Y-108652531D01*
X122399122Y-109652531D02*
X122399122Y-108652531D01*
X122399122Y-108652531D02*
X122780074Y-108652531D01*
X122780074Y-108652531D02*
X122875312Y-108700150D01*
X122875312Y-108700150D02*
X122922931Y-108747769D01*
X122922931Y-108747769D02*
X122970550Y-108843007D01*
X122970550Y-108843007D02*
X122970550Y-108985864D01*
X122970550Y-108985864D02*
X122922931Y-109081102D01*
X122922931Y-109081102D02*
X122875312Y-109128721D01*
X122875312Y-109128721D02*
X122780074Y-109176340D01*
X122780074Y-109176340D02*
X122399122Y-109176340D01*
X124589598Y-108652531D02*
X124399122Y-108652531D01*
X124399122Y-108652531D02*
X124303884Y-108700150D01*
X124303884Y-108700150D02*
X124256265Y-108747769D01*
X124256265Y-108747769D02*
X124161027Y-108890626D01*
X124161027Y-108890626D02*
X124113408Y-109081102D01*
X124113408Y-109081102D02*
X124113408Y-109462054D01*
X124113408Y-109462054D02*
X124161027Y-109557292D01*
X124161027Y-109557292D02*
X124208646Y-109604912D01*
X124208646Y-109604912D02*
X124303884Y-109652531D01*
X124303884Y-109652531D02*
X124494360Y-109652531D01*
X124494360Y-109652531D02*
X124589598Y-109604912D01*
X124589598Y-109604912D02*
X124637217Y-109557292D01*
X124637217Y-109557292D02*
X124684836Y-109462054D01*
X124684836Y-109462054D02*
X124684836Y-109223959D01*
X124684836Y-109223959D02*
X124637217Y-109128721D01*
X124637217Y-109128721D02*
X124589598Y-109081102D01*
X124589598Y-109081102D02*
X124494360Y-109033483D01*
X124494360Y-109033483D02*
X124303884Y-109033483D01*
X124303884Y-109033483D02*
X124208646Y-109081102D01*
X124208646Y-109081102D02*
X124161027Y-109128721D01*
X124161027Y-109128721D02*
X124113408Y-109223959D01*
X125018170Y-108652531D02*
X125684836Y-108652531D01*
X125684836Y-108652531D02*
X125256265Y-109652531D01*
X126065789Y-109557292D02*
X126113408Y-109604912D01*
X126113408Y-109604912D02*
X126065789Y-109652531D01*
X126065789Y-109652531D02*
X126018170Y-109604912D01*
X126018170Y-109604912D02*
X126065789Y-109557292D01*
X126065789Y-109557292D02*
X126065789Y-109652531D01*
X126065789Y-109033483D02*
X126113408Y-109081102D01*
X126113408Y-109081102D02*
X126065789Y-109128721D01*
X126065789Y-109128721D02*
X126018170Y-109081102D01*
X126018170Y-109081102D02*
X126065789Y-109033483D01*
X126065789Y-109033483D02*
X126065789Y-109128721D01*
X118303884Y-111262475D02*
X118303884Y-110262475D01*
X118875312Y-111262475D02*
X118446741Y-110691046D01*
X118875312Y-110262475D02*
X118303884Y-110833903D01*
X119637217Y-110738665D02*
X119303884Y-110738665D01*
X119303884Y-111262475D02*
X119303884Y-110262475D01*
X119303884Y-110262475D02*
X119780074Y-110262475D01*
X120161027Y-111262475D02*
X120161027Y-110262475D01*
X120732455Y-111262475D02*
X120303884Y-110691046D01*
X120732455Y-110262475D02*
X120161027Y-110833903D01*
X121732455Y-111167236D02*
X121684836Y-111214856D01*
X121684836Y-111214856D02*
X121541979Y-111262475D01*
X121541979Y-111262475D02*
X121446741Y-111262475D01*
X121446741Y-111262475D02*
X121303884Y-111214856D01*
X121303884Y-111214856D02*
X121208646Y-111119617D01*
X121208646Y-111119617D02*
X121161027Y-111024379D01*
X121161027Y-111024379D02*
X121113408Y-110833903D01*
X121113408Y-110833903D02*
X121113408Y-110691046D01*
X121113408Y-110691046D02*
X121161027Y-110500570D01*
X121161027Y-110500570D02*
X121208646Y-110405332D01*
X121208646Y-110405332D02*
X121303884Y-110310094D01*
X121303884Y-110310094D02*
X121446741Y-110262475D01*
X121446741Y-110262475D02*
X121541979Y-110262475D01*
X121541979Y-110262475D02*
X121684836Y-110310094D01*
X121684836Y-110310094D02*
X121732455Y-110357713D01*
X122161027Y-111262475D02*
X122161027Y-110262475D01*
X122161027Y-110738665D02*
X122732455Y-110738665D01*
X122732455Y-111262475D02*
X122732455Y-110262475D01*
X123208646Y-111262475D02*
X123208646Y-110262475D01*
X123875312Y-110262475D02*
X123970550Y-110262475D01*
X123970550Y-110262475D02*
X124065788Y-110310094D01*
X124065788Y-110310094D02*
X124113407Y-110357713D01*
X124113407Y-110357713D02*
X124161026Y-110452951D01*
X124161026Y-110452951D02*
X124208645Y-110643427D01*
X124208645Y-110643427D02*
X124208645Y-110881522D01*
X124208645Y-110881522D02*
X124161026Y-111071998D01*
X124161026Y-111071998D02*
X124113407Y-111167236D01*
X124113407Y-111167236D02*
X124065788Y-111214856D01*
X124065788Y-111214856D02*
X123970550Y-111262475D01*
X123970550Y-111262475D02*
X123875312Y-111262475D01*
X123875312Y-111262475D02*
X123780074Y-111214856D01*
X123780074Y-111214856D02*
X123732455Y-111167236D01*
X123732455Y-111167236D02*
X123684836Y-111071998D01*
X123684836Y-111071998D02*
X123637217Y-110881522D01*
X123637217Y-110881522D02*
X123637217Y-110643427D01*
X123637217Y-110643427D02*
X123684836Y-110452951D01*
X123684836Y-110452951D02*
X123732455Y-110357713D01*
X123732455Y-110357713D02*
X123780074Y-110310094D01*
X123780074Y-110310094D02*
X123875312Y-110262475D01*
X124827693Y-110262475D02*
X124922931Y-110262475D01*
X124922931Y-110262475D02*
X125018169Y-110310094D01*
X125018169Y-110310094D02*
X125065788Y-110357713D01*
X125065788Y-110357713D02*
X125113407Y-110452951D01*
X125113407Y-110452951D02*
X125161026Y-110643427D01*
X125161026Y-110643427D02*
X125161026Y-110881522D01*
X125161026Y-110881522D02*
X125113407Y-111071998D01*
X125113407Y-111071998D02*
X125065788Y-111167236D01*
X125065788Y-111167236D02*
X125018169Y-111214856D01*
X125018169Y-111214856D02*
X124922931Y-111262475D01*
X124922931Y-111262475D02*
X124827693Y-111262475D01*
X124827693Y-111262475D02*
X124732455Y-111214856D01*
X124732455Y-111214856D02*
X124684836Y-111167236D01*
X124684836Y-111167236D02*
X124637217Y-111071998D01*
X124637217Y-111071998D02*
X124589598Y-110881522D01*
X124589598Y-110881522D02*
X124589598Y-110643427D01*
X124589598Y-110643427D02*
X124637217Y-110452951D01*
X124637217Y-110452951D02*
X124684836Y-110357713D01*
X124684836Y-110357713D02*
X124732455Y-110310094D01*
X124732455Y-110310094D02*
X124827693Y-110262475D01*
X126113407Y-111262475D02*
X125541979Y-111262475D01*
X125827693Y-111262475D02*
X125827693Y-110262475D01*
X125827693Y-110262475D02*
X125732455Y-110405332D01*
X125732455Y-110405332D02*
X125637217Y-110500570D01*
X125637217Y-110500570D02*
X125541979Y-110548189D01*
X118494360Y-111872419D02*
X118684836Y-111872419D01*
X118684836Y-111872419D02*
X118780074Y-111920038D01*
X118780074Y-111920038D02*
X118875312Y-112015276D01*
X118875312Y-112015276D02*
X118922931Y-112205752D01*
X118922931Y-112205752D02*
X118922931Y-112539085D01*
X118922931Y-112539085D02*
X118875312Y-112729561D01*
X118875312Y-112729561D02*
X118780074Y-112824800D01*
X118780074Y-112824800D02*
X118684836Y-112872419D01*
X118684836Y-112872419D02*
X118494360Y-112872419D01*
X118494360Y-112872419D02*
X118399122Y-112824800D01*
X118399122Y-112824800D02*
X118303884Y-112729561D01*
X118303884Y-112729561D02*
X118256265Y-112539085D01*
X118256265Y-112539085D02*
X118256265Y-112205752D01*
X118256265Y-112205752D02*
X118303884Y-112015276D01*
X118303884Y-112015276D02*
X118399122Y-111920038D01*
X118399122Y-111920038D02*
X118494360Y-111872419D01*
X119827693Y-112872419D02*
X119351503Y-112872419D01*
X119351503Y-112872419D02*
X119351503Y-111872419D01*
X120494360Y-112348609D02*
X120161027Y-112348609D01*
X120161027Y-112872419D02*
X120161027Y-111872419D01*
X120161027Y-111872419D02*
X120637217Y-111872419D01*
X121018170Y-112872419D02*
X121018170Y-111872419D01*
X121018170Y-111872419D02*
X121256265Y-111872419D01*
X121256265Y-111872419D02*
X121399122Y-111920038D01*
X121399122Y-111920038D02*
X121494360Y-112015276D01*
X121494360Y-112015276D02*
X121541979Y-112110514D01*
X121541979Y-112110514D02*
X121589598Y-112300990D01*
X121589598Y-112300990D02*
X121589598Y-112443847D01*
X121589598Y-112443847D02*
X121541979Y-112634323D01*
X121541979Y-112634323D02*
X121494360Y-112729561D01*
X121494360Y-112729561D02*
X121399122Y-112824800D01*
X121399122Y-112824800D02*
X121256265Y-112872419D01*
X121256265Y-112872419D02*
X121018170Y-112872419D01*
X121970551Y-112586704D02*
X122446741Y-112586704D01*
X121875313Y-112872419D02*
X122208646Y-111872419D01*
X122208646Y-111872419D02*
X122541979Y-112872419D01*
X122875313Y-112872419D02*
X122875313Y-111872419D01*
X122875313Y-111872419D02*
X123446741Y-112872419D01*
X123446741Y-112872419D02*
X123446741Y-111872419D01*
X124113408Y-111872419D02*
X124208646Y-111872419D01*
X124208646Y-111872419D02*
X124303884Y-111920038D01*
X124303884Y-111920038D02*
X124351503Y-111967657D01*
X124351503Y-111967657D02*
X124399122Y-112062895D01*
X124399122Y-112062895D02*
X124446741Y-112253371D01*
X124446741Y-112253371D02*
X124446741Y-112491466D01*
X124446741Y-112491466D02*
X124399122Y-112681942D01*
X124399122Y-112681942D02*
X124351503Y-112777180D01*
X124351503Y-112777180D02*
X124303884Y-112824800D01*
X124303884Y-112824800D02*
X124208646Y-112872419D01*
X124208646Y-112872419D02*
X124113408Y-112872419D01*
X124113408Y-112872419D02*
X124018170Y-112824800D01*
X124018170Y-112824800D02*
X123970551Y-112777180D01*
X123970551Y-112777180D02*
X123922932Y-112681942D01*
X123922932Y-112681942D02*
X123875313Y-112491466D01*
X123875313Y-112491466D02*
X123875313Y-112253371D01*
X123875313Y-112253371D02*
X123922932Y-112062895D01*
X123922932Y-112062895D02*
X123970551Y-111967657D01*
X123970551Y-111967657D02*
X124018170Y-111920038D01*
X124018170Y-111920038D02*
X124113408Y-111872419D01*
X125065789Y-111872419D02*
X125161027Y-111872419D01*
X125161027Y-111872419D02*
X125256265Y-111920038D01*
X125256265Y-111920038D02*
X125303884Y-111967657D01*
X125303884Y-111967657D02*
X125351503Y-112062895D01*
X125351503Y-112062895D02*
X125399122Y-112253371D01*
X125399122Y-112253371D02*
X125399122Y-112491466D01*
X125399122Y-112491466D02*
X125351503Y-112681942D01*
X125351503Y-112681942D02*
X125303884Y-112777180D01*
X125303884Y-112777180D02*
X125256265Y-112824800D01*
X125256265Y-112824800D02*
X125161027Y-112872419D01*
X125161027Y-112872419D02*
X125065789Y-112872419D01*
X125065789Y-112872419D02*
X124970551Y-112824800D01*
X124970551Y-112824800D02*
X124922932Y-112777180D01*
X124922932Y-112777180D02*
X124875313Y-112681942D01*
X124875313Y-112681942D02*
X124827694Y-112491466D01*
X124827694Y-112491466D02*
X124827694Y-112253371D01*
X124827694Y-112253371D02*
X124875313Y-112062895D01*
X124875313Y-112062895D02*
X124922932Y-111967657D01*
X124922932Y-111967657D02*
X124970551Y-111920038D01*
X124970551Y-111920038D02*
X125065789Y-111872419D01*
X126351503Y-112872419D02*
X125780075Y-112872419D01*
X126065789Y-112872419D02*
X126065789Y-111872419D01*
X126065789Y-111872419D02*
X125970551Y-112015276D01*
X125970551Y-112015276D02*
X125875313Y-112110514D01*
X125875313Y-112110514D02*
X125780075Y-112158133D01*
D11*
X134699580Y-75146666D02*
X134747200Y-75194285D01*
X134747200Y-75194285D02*
X134794819Y-75337142D01*
X134794819Y-75337142D02*
X134794819Y-75432380D01*
X134794819Y-75432380D02*
X134747200Y-75575237D01*
X134747200Y-75575237D02*
X134651961Y-75670475D01*
X134651961Y-75670475D02*
X134556723Y-75718094D01*
X134556723Y-75718094D02*
X134366247Y-75765713D01*
X134366247Y-75765713D02*
X134223390Y-75765713D01*
X134223390Y-75765713D02*
X134032914Y-75718094D01*
X134032914Y-75718094D02*
X133937676Y-75670475D01*
X133937676Y-75670475D02*
X133842438Y-75575237D01*
X133842438Y-75575237D02*
X133794819Y-75432380D01*
X133794819Y-75432380D02*
X133794819Y-75337142D01*
X133794819Y-75337142D02*
X133842438Y-75194285D01*
X133842438Y-75194285D02*
X133890057Y-75146666D01*
X133890057Y-74765713D02*
X133842438Y-74718094D01*
X133842438Y-74718094D02*
X133794819Y-74622856D01*
X133794819Y-74622856D02*
X133794819Y-74384761D01*
X133794819Y-74384761D02*
X133842438Y-74289523D01*
X133842438Y-74289523D02*
X133890057Y-74241904D01*
X133890057Y-74241904D02*
X133985295Y-74194285D01*
X133985295Y-74194285D02*
X134080533Y-74194285D01*
X134080533Y-74194285D02*
X134223390Y-74241904D01*
X134223390Y-74241904D02*
X134794819Y-74813332D01*
X134794819Y-74813332D02*
X134794819Y-74194285D01*
X155604819Y-75142857D02*
X155128628Y-75476190D01*
X155604819Y-75714285D02*
X154604819Y-75714285D01*
X154604819Y-75714285D02*
X154604819Y-75333333D01*
X154604819Y-75333333D02*
X154652438Y-75238095D01*
X154652438Y-75238095D02*
X154700057Y-75190476D01*
X154700057Y-75190476D02*
X154795295Y-75142857D01*
X154795295Y-75142857D02*
X154938152Y-75142857D01*
X154938152Y-75142857D02*
X155033390Y-75190476D01*
X155033390Y-75190476D02*
X155081009Y-75238095D01*
X155081009Y-75238095D02*
X155128628Y-75333333D01*
X155128628Y-75333333D02*
X155128628Y-75714285D01*
X155604819Y-74190476D02*
X155604819Y-74761904D01*
X155604819Y-74476190D02*
X154604819Y-74476190D01*
X154604819Y-74476190D02*
X154747676Y-74571428D01*
X154747676Y-74571428D02*
X154842914Y-74666666D01*
X154842914Y-74666666D02*
X154890533Y-74761904D01*
X155604819Y-73238095D02*
X155604819Y-73809523D01*
X155604819Y-73523809D02*
X154604819Y-73523809D01*
X154604819Y-73523809D02*
X154747676Y-73619047D01*
X154747676Y-73619047D02*
X154842914Y-73714285D01*
X154842914Y-73714285D02*
X154890533Y-73809523D01*
X157909819Y-95240357D02*
X157433628Y-95573690D01*
X157909819Y-95811785D02*
X156909819Y-95811785D01*
X156909819Y-95811785D02*
X156909819Y-95430833D01*
X156909819Y-95430833D02*
X156957438Y-95335595D01*
X156957438Y-95335595D02*
X157005057Y-95287976D01*
X157005057Y-95287976D02*
X157100295Y-95240357D01*
X157100295Y-95240357D02*
X157243152Y-95240357D01*
X157243152Y-95240357D02*
X157338390Y-95287976D01*
X157338390Y-95287976D02*
X157386009Y-95335595D01*
X157386009Y-95335595D02*
X157433628Y-95430833D01*
X157433628Y-95430833D02*
X157433628Y-95811785D01*
X156909819Y-94907023D02*
X156909819Y-94287976D01*
X156909819Y-94287976D02*
X157290771Y-94621309D01*
X157290771Y-94621309D02*
X157290771Y-94478452D01*
X157290771Y-94478452D02*
X157338390Y-94383214D01*
X157338390Y-94383214D02*
X157386009Y-94335595D01*
X157386009Y-94335595D02*
X157481247Y-94287976D01*
X157481247Y-94287976D02*
X157719342Y-94287976D01*
X157719342Y-94287976D02*
X157814580Y-94335595D01*
X157814580Y-94335595D02*
X157862200Y-94383214D01*
X157862200Y-94383214D02*
X157909819Y-94478452D01*
X157909819Y-94478452D02*
X157909819Y-94764166D01*
X157909819Y-94764166D02*
X157862200Y-94859404D01*
X157862200Y-94859404D02*
X157814580Y-94907023D01*
X157005057Y-93907023D02*
X156957438Y-93859404D01*
X156957438Y-93859404D02*
X156909819Y-93764166D01*
X156909819Y-93764166D02*
X156909819Y-93526071D01*
X156909819Y-93526071D02*
X156957438Y-93430833D01*
X156957438Y-93430833D02*
X157005057Y-93383214D01*
X157005057Y-93383214D02*
X157100295Y-93335595D01*
X157100295Y-93335595D02*
X157195533Y-93335595D01*
X157195533Y-93335595D02*
X157338390Y-93383214D01*
X157338390Y-93383214D02*
X157909819Y-93954642D01*
X157909819Y-93954642D02*
X157909819Y-93335595D01*
X137505952Y-100344104D02*
X137982142Y-100344104D01*
X137410714Y-100629819D02*
X137744047Y-99629819D01*
X137744047Y-99629819D02*
X138077380Y-100629819D01*
X138839285Y-99963152D02*
X138839285Y-100629819D01*
X138410714Y-99963152D02*
X138410714Y-100486961D01*
X138410714Y-100486961D02*
X138458333Y-100582200D01*
X138458333Y-100582200D02*
X138553571Y-100629819D01*
X138553571Y-100629819D02*
X138696428Y-100629819D01*
X138696428Y-100629819D02*
X138791666Y-100582200D01*
X138791666Y-100582200D02*
X138839285Y-100534580D01*
X139220238Y-100629819D02*
X139744047Y-99963152D01*
X139220238Y-99963152D02*
X139744047Y-100629819D01*
X140125000Y-100629819D02*
X140125000Y-99963152D01*
X140125000Y-99629819D02*
X140077381Y-99677438D01*
X140077381Y-99677438D02*
X140125000Y-99725057D01*
X140125000Y-99725057D02*
X140172619Y-99677438D01*
X140172619Y-99677438D02*
X140125000Y-99629819D01*
X140125000Y-99629819D02*
X140125000Y-99725057D01*
X140744047Y-100629819D02*
X140648809Y-100582200D01*
X140648809Y-100582200D02*
X140601190Y-100486961D01*
X140601190Y-100486961D02*
X140601190Y-99629819D01*
X141125000Y-100629819D02*
X141125000Y-99963152D01*
X141125000Y-99629819D02*
X141077381Y-99677438D01*
X141077381Y-99677438D02*
X141125000Y-99725057D01*
X141125000Y-99725057D02*
X141172619Y-99677438D01*
X141172619Y-99677438D02*
X141125000Y-99629819D01*
X141125000Y-99629819D02*
X141125000Y-99725057D01*
X142029761Y-100629819D02*
X142029761Y-100106009D01*
X142029761Y-100106009D02*
X141982142Y-100010771D01*
X141982142Y-100010771D02*
X141886904Y-99963152D01*
X141886904Y-99963152D02*
X141696428Y-99963152D01*
X141696428Y-99963152D02*
X141601190Y-100010771D01*
X142029761Y-100582200D02*
X141934523Y-100629819D01*
X141934523Y-100629819D02*
X141696428Y-100629819D01*
X141696428Y-100629819D02*
X141601190Y-100582200D01*
X141601190Y-100582200D02*
X141553571Y-100486961D01*
X141553571Y-100486961D02*
X141553571Y-100391723D01*
X141553571Y-100391723D02*
X141601190Y-100296485D01*
X141601190Y-100296485D02*
X141696428Y-100248866D01*
X141696428Y-100248866D02*
X141934523Y-100248866D01*
X141934523Y-100248866D02*
X142029761Y-100201247D01*
X142505952Y-100629819D02*
X142505952Y-99963152D01*
X142505952Y-100153628D02*
X142553571Y-100058390D01*
X142553571Y-100058390D02*
X142601190Y-100010771D01*
X142601190Y-100010771D02*
X142696428Y-99963152D01*
X142696428Y-99963152D02*
X142791666Y-99963152D01*
X143029762Y-99963152D02*
X143267857Y-100629819D01*
X143505952Y-99963152D02*
X143267857Y-100629819D01*
X143267857Y-100629819D02*
X143172619Y-100867914D01*
X143172619Y-100867914D02*
X143125000Y-100915533D01*
X143125000Y-100915533D02*
X143029762Y-100963152D01*
X143886905Y-100629819D02*
X143886905Y-99629819D01*
X143886905Y-99629819D02*
X144125000Y-99629819D01*
X144125000Y-99629819D02*
X144267857Y-99677438D01*
X144267857Y-99677438D02*
X144363095Y-99772676D01*
X144363095Y-99772676D02*
X144410714Y-99867914D01*
X144410714Y-99867914D02*
X144458333Y-100058390D01*
X144458333Y-100058390D02*
X144458333Y-100201247D01*
X144458333Y-100201247D02*
X144410714Y-100391723D01*
X144410714Y-100391723D02*
X144363095Y-100486961D01*
X144363095Y-100486961D02*
X144267857Y-100582200D01*
X144267857Y-100582200D02*
X144125000Y-100629819D01*
X144125000Y-100629819D02*
X143886905Y-100629819D01*
X144886905Y-100629819D02*
X144886905Y-99963152D01*
X144886905Y-100153628D02*
X144934524Y-100058390D01*
X144934524Y-100058390D02*
X144982143Y-100010771D01*
X144982143Y-100010771D02*
X145077381Y-99963152D01*
X145077381Y-99963152D02*
X145172619Y-99963152D01*
X145505953Y-100629819D02*
X145505953Y-99963152D01*
X145505953Y-99629819D02*
X145458334Y-99677438D01*
X145458334Y-99677438D02*
X145505953Y-99725057D01*
X145505953Y-99725057D02*
X145553572Y-99677438D01*
X145553572Y-99677438D02*
X145505953Y-99629819D01*
X145505953Y-99629819D02*
X145505953Y-99725057D01*
X145886905Y-99963152D02*
X146125000Y-100629819D01*
X146125000Y-100629819D02*
X146363095Y-99963152D01*
X147125000Y-100582200D02*
X147029762Y-100629819D01*
X147029762Y-100629819D02*
X146839286Y-100629819D01*
X146839286Y-100629819D02*
X146744048Y-100582200D01*
X146744048Y-100582200D02*
X146696429Y-100486961D01*
X146696429Y-100486961D02*
X146696429Y-100106009D01*
X146696429Y-100106009D02*
X146744048Y-100010771D01*
X146744048Y-100010771D02*
X146839286Y-99963152D01*
X146839286Y-99963152D02*
X147029762Y-99963152D01*
X147029762Y-99963152D02*
X147125000Y-100010771D01*
X147125000Y-100010771D02*
X147172619Y-100106009D01*
X147172619Y-100106009D02*
X147172619Y-100201247D01*
X147172619Y-100201247D02*
X146696429Y-100296485D01*
X147601191Y-100629819D02*
X147601191Y-99963152D01*
X147601191Y-100153628D02*
X147648810Y-100058390D01*
X147648810Y-100058390D02*
X147696429Y-100010771D01*
X147696429Y-100010771D02*
X147791667Y-99963152D01*
X147791667Y-99963152D02*
X147886905Y-99963152D01*
X148744048Y-100629819D02*
X148172620Y-100629819D01*
X148458334Y-100629819D02*
X148458334Y-99629819D01*
X148458334Y-99629819D02*
X148363096Y-99772676D01*
X148363096Y-99772676D02*
X148267858Y-99867914D01*
X148267858Y-99867914D02*
X148172620Y-99915533D01*
X174954819Y-107502857D02*
X174478628Y-107836190D01*
X174954819Y-108074285D02*
X173954819Y-108074285D01*
X173954819Y-108074285D02*
X173954819Y-107693333D01*
X173954819Y-107693333D02*
X174002438Y-107598095D01*
X174002438Y-107598095D02*
X174050057Y-107550476D01*
X174050057Y-107550476D02*
X174145295Y-107502857D01*
X174145295Y-107502857D02*
X174288152Y-107502857D01*
X174288152Y-107502857D02*
X174383390Y-107550476D01*
X174383390Y-107550476D02*
X174431009Y-107598095D01*
X174431009Y-107598095D02*
X174478628Y-107693333D01*
X174478628Y-107693333D02*
X174478628Y-108074285D01*
X174050057Y-107121904D02*
X174002438Y-107074285D01*
X174002438Y-107074285D02*
X173954819Y-106979047D01*
X173954819Y-106979047D02*
X173954819Y-106740952D01*
X173954819Y-106740952D02*
X174002438Y-106645714D01*
X174002438Y-106645714D02*
X174050057Y-106598095D01*
X174050057Y-106598095D02*
X174145295Y-106550476D01*
X174145295Y-106550476D02*
X174240533Y-106550476D01*
X174240533Y-106550476D02*
X174383390Y-106598095D01*
X174383390Y-106598095D02*
X174954819Y-107169523D01*
X174954819Y-107169523D02*
X174954819Y-106550476D01*
X174288152Y-105693333D02*
X174954819Y-105693333D01*
X173907200Y-105931428D02*
X174621485Y-106169523D01*
X174621485Y-106169523D02*
X174621485Y-105550476D01*
X151100595Y-82129819D02*
X151100595Y-82939342D01*
X151100595Y-82939342D02*
X151148214Y-83034580D01*
X151148214Y-83034580D02*
X151195833Y-83082200D01*
X151195833Y-83082200D02*
X151291071Y-83129819D01*
X151291071Y-83129819D02*
X151481547Y-83129819D01*
X151481547Y-83129819D02*
X151576785Y-83082200D01*
X151576785Y-83082200D02*
X151624404Y-83034580D01*
X151624404Y-83034580D02*
X151672023Y-82939342D01*
X151672023Y-82939342D02*
X151672023Y-82129819D01*
X152624404Y-82129819D02*
X152148214Y-82129819D01*
X152148214Y-82129819D02*
X152100595Y-82606009D01*
X152100595Y-82606009D02*
X152148214Y-82558390D01*
X152148214Y-82558390D02*
X152243452Y-82510771D01*
X152243452Y-82510771D02*
X152481547Y-82510771D01*
X152481547Y-82510771D02*
X152576785Y-82558390D01*
X152576785Y-82558390D02*
X152624404Y-82606009D01*
X152624404Y-82606009D02*
X152672023Y-82701247D01*
X152672023Y-82701247D02*
X152672023Y-82939342D01*
X152672023Y-82939342D02*
X152624404Y-83034580D01*
X152624404Y-83034580D02*
X152576785Y-83082200D01*
X152576785Y-83082200D02*
X152481547Y-83129819D01*
X152481547Y-83129819D02*
X152243452Y-83129819D01*
X152243452Y-83129819D02*
X152148214Y-83082200D01*
X152148214Y-83082200D02*
X152100595Y-83034580D01*
X157649819Y-97754166D02*
X157173628Y-98087499D01*
X157649819Y-98325594D02*
X156649819Y-98325594D01*
X156649819Y-98325594D02*
X156649819Y-97944642D01*
X156649819Y-97944642D02*
X156697438Y-97849404D01*
X156697438Y-97849404D02*
X156745057Y-97801785D01*
X156745057Y-97801785D02*
X156840295Y-97754166D01*
X156840295Y-97754166D02*
X156983152Y-97754166D01*
X156983152Y-97754166D02*
X157078390Y-97801785D01*
X157078390Y-97801785D02*
X157126009Y-97849404D01*
X157126009Y-97849404D02*
X157173628Y-97944642D01*
X157173628Y-97944642D02*
X157173628Y-98325594D01*
X156745057Y-97373213D02*
X156697438Y-97325594D01*
X156697438Y-97325594D02*
X156649819Y-97230356D01*
X156649819Y-97230356D02*
X156649819Y-96992261D01*
X156649819Y-96992261D02*
X156697438Y-96897023D01*
X156697438Y-96897023D02*
X156745057Y-96849404D01*
X156745057Y-96849404D02*
X156840295Y-96801785D01*
X156840295Y-96801785D02*
X156935533Y-96801785D01*
X156935533Y-96801785D02*
X157078390Y-96849404D01*
X157078390Y-96849404D02*
X157649819Y-97420832D01*
X157649819Y-97420832D02*
X157649819Y-96801785D01*
X164263095Y-72854819D02*
X164263095Y-73664342D01*
X164263095Y-73664342D02*
X164310714Y-73759580D01*
X164310714Y-73759580D02*
X164358333Y-73807200D01*
X164358333Y-73807200D02*
X164453571Y-73854819D01*
X164453571Y-73854819D02*
X164644047Y-73854819D01*
X164644047Y-73854819D02*
X164739285Y-73807200D01*
X164739285Y-73807200D02*
X164786904Y-73759580D01*
X164786904Y-73759580D02*
X164834523Y-73664342D01*
X164834523Y-73664342D02*
X164834523Y-72854819D01*
X165263095Y-72950057D02*
X165310714Y-72902438D01*
X165310714Y-72902438D02*
X165405952Y-72854819D01*
X165405952Y-72854819D02*
X165644047Y-72854819D01*
X165644047Y-72854819D02*
X165739285Y-72902438D01*
X165739285Y-72902438D02*
X165786904Y-72950057D01*
X165786904Y-72950057D02*
X165834523Y-73045295D01*
X165834523Y-73045295D02*
X165834523Y-73140533D01*
X165834523Y-73140533D02*
X165786904Y-73283390D01*
X165786904Y-73283390D02*
X165215476Y-73854819D01*
X165215476Y-73854819D02*
X165834523Y-73854819D01*
X155850057Y-61095238D02*
X155802438Y-61190476D01*
X155802438Y-61190476D02*
X155707200Y-61285714D01*
X155707200Y-61285714D02*
X155564342Y-61428571D01*
X155564342Y-61428571D02*
X155516723Y-61523809D01*
X155516723Y-61523809D02*
X155516723Y-61619047D01*
X155754819Y-61571428D02*
X155707200Y-61666666D01*
X155707200Y-61666666D02*
X155611961Y-61761904D01*
X155611961Y-61761904D02*
X155421485Y-61809523D01*
X155421485Y-61809523D02*
X155088152Y-61809523D01*
X155088152Y-61809523D02*
X154897676Y-61761904D01*
X154897676Y-61761904D02*
X154802438Y-61666666D01*
X154802438Y-61666666D02*
X154754819Y-61571428D01*
X154754819Y-61571428D02*
X154754819Y-61380952D01*
X154754819Y-61380952D02*
X154802438Y-61285714D01*
X154802438Y-61285714D02*
X154897676Y-61190476D01*
X154897676Y-61190476D02*
X155088152Y-61142857D01*
X155088152Y-61142857D02*
X155421485Y-61142857D01*
X155421485Y-61142857D02*
X155611961Y-61190476D01*
X155611961Y-61190476D02*
X155707200Y-61285714D01*
X155707200Y-61285714D02*
X155754819Y-61380952D01*
X155754819Y-61380952D02*
X155754819Y-61571428D01*
X155754819Y-60190476D02*
X155754819Y-60761904D01*
X155754819Y-60476190D02*
X154754819Y-60476190D01*
X154754819Y-60476190D02*
X154897676Y-60571428D01*
X154897676Y-60571428D02*
X154992914Y-60666666D01*
X154992914Y-60666666D02*
X155040533Y-60761904D01*
X149304819Y-92642857D02*
X148828628Y-92976190D01*
X149304819Y-93214285D02*
X148304819Y-93214285D01*
X148304819Y-93214285D02*
X148304819Y-92833333D01*
X148304819Y-92833333D02*
X148352438Y-92738095D01*
X148352438Y-92738095D02*
X148400057Y-92690476D01*
X148400057Y-92690476D02*
X148495295Y-92642857D01*
X148495295Y-92642857D02*
X148638152Y-92642857D01*
X148638152Y-92642857D02*
X148733390Y-92690476D01*
X148733390Y-92690476D02*
X148781009Y-92738095D01*
X148781009Y-92738095D02*
X148828628Y-92833333D01*
X148828628Y-92833333D02*
X148828628Y-93214285D01*
X149304819Y-91690476D02*
X149304819Y-92261904D01*
X149304819Y-91976190D02*
X148304819Y-91976190D01*
X148304819Y-91976190D02*
X148447676Y-92071428D01*
X148447676Y-92071428D02*
X148542914Y-92166666D01*
X148542914Y-92166666D02*
X148590533Y-92261904D01*
X148304819Y-91071428D02*
X148304819Y-90976190D01*
X148304819Y-90976190D02*
X148352438Y-90880952D01*
X148352438Y-90880952D02*
X148400057Y-90833333D01*
X148400057Y-90833333D02*
X148495295Y-90785714D01*
X148495295Y-90785714D02*
X148685771Y-90738095D01*
X148685771Y-90738095D02*
X148923866Y-90738095D01*
X148923866Y-90738095D02*
X149114342Y-90785714D01*
X149114342Y-90785714D02*
X149209580Y-90833333D01*
X149209580Y-90833333D02*
X149257200Y-90880952D01*
X149257200Y-90880952D02*
X149304819Y-90976190D01*
X149304819Y-90976190D02*
X149304819Y-91071428D01*
X149304819Y-91071428D02*
X149257200Y-91166666D01*
X149257200Y-91166666D02*
X149209580Y-91214285D01*
X149209580Y-91214285D02*
X149114342Y-91261904D01*
X149114342Y-91261904D02*
X148923866Y-91309523D01*
X148923866Y-91309523D02*
X148685771Y-91309523D01*
X148685771Y-91309523D02*
X148495295Y-91261904D01*
X148495295Y-91261904D02*
X148400057Y-91214285D01*
X148400057Y-91214285D02*
X148352438Y-91166666D01*
X148352438Y-91166666D02*
X148304819Y-91071428D01*
X168104819Y-70142857D02*
X167628628Y-70476190D01*
X168104819Y-70714285D02*
X167104819Y-70714285D01*
X167104819Y-70714285D02*
X167104819Y-70333333D01*
X167104819Y-70333333D02*
X167152438Y-70238095D01*
X167152438Y-70238095D02*
X167200057Y-70190476D01*
X167200057Y-70190476D02*
X167295295Y-70142857D01*
X167295295Y-70142857D02*
X167438152Y-70142857D01*
X167438152Y-70142857D02*
X167533390Y-70190476D01*
X167533390Y-70190476D02*
X167581009Y-70238095D01*
X167581009Y-70238095D02*
X167628628Y-70333333D01*
X167628628Y-70333333D02*
X167628628Y-70714285D01*
X167200057Y-69761904D02*
X167152438Y-69714285D01*
X167152438Y-69714285D02*
X167104819Y-69619047D01*
X167104819Y-69619047D02*
X167104819Y-69380952D01*
X167104819Y-69380952D02*
X167152438Y-69285714D01*
X167152438Y-69285714D02*
X167200057Y-69238095D01*
X167200057Y-69238095D02*
X167295295Y-69190476D01*
X167295295Y-69190476D02*
X167390533Y-69190476D01*
X167390533Y-69190476D02*
X167533390Y-69238095D01*
X167533390Y-69238095D02*
X168104819Y-69809523D01*
X168104819Y-69809523D02*
X168104819Y-69190476D01*
X167200057Y-68809523D02*
X167152438Y-68761904D01*
X167152438Y-68761904D02*
X167104819Y-68666666D01*
X167104819Y-68666666D02*
X167104819Y-68428571D01*
X167104819Y-68428571D02*
X167152438Y-68333333D01*
X167152438Y-68333333D02*
X167200057Y-68285714D01*
X167200057Y-68285714D02*
X167295295Y-68238095D01*
X167295295Y-68238095D02*
X167390533Y-68238095D01*
X167390533Y-68238095D02*
X167533390Y-68285714D01*
X167533390Y-68285714D02*
X168104819Y-68857142D01*
X168104819Y-68857142D02*
X168104819Y-68238095D01*
X158384819Y-73230357D02*
X157908628Y-73563690D01*
X158384819Y-73801785D02*
X157384819Y-73801785D01*
X157384819Y-73801785D02*
X157384819Y-73420833D01*
X157384819Y-73420833D02*
X157432438Y-73325595D01*
X157432438Y-73325595D02*
X157480057Y-73277976D01*
X157480057Y-73277976D02*
X157575295Y-73230357D01*
X157575295Y-73230357D02*
X157718152Y-73230357D01*
X157718152Y-73230357D02*
X157813390Y-73277976D01*
X157813390Y-73277976D02*
X157861009Y-73325595D01*
X157861009Y-73325595D02*
X157908628Y-73420833D01*
X157908628Y-73420833D02*
X157908628Y-73801785D01*
X157480057Y-72849404D02*
X157432438Y-72801785D01*
X157432438Y-72801785D02*
X157384819Y-72706547D01*
X157384819Y-72706547D02*
X157384819Y-72468452D01*
X157384819Y-72468452D02*
X157432438Y-72373214D01*
X157432438Y-72373214D02*
X157480057Y-72325595D01*
X157480057Y-72325595D02*
X157575295Y-72277976D01*
X157575295Y-72277976D02*
X157670533Y-72277976D01*
X157670533Y-72277976D02*
X157813390Y-72325595D01*
X157813390Y-72325595D02*
X158384819Y-72897023D01*
X158384819Y-72897023D02*
X158384819Y-72277976D01*
X157384819Y-71658928D02*
X157384819Y-71563690D01*
X157384819Y-71563690D02*
X157432438Y-71468452D01*
X157432438Y-71468452D02*
X157480057Y-71420833D01*
X157480057Y-71420833D02*
X157575295Y-71373214D01*
X157575295Y-71373214D02*
X157765771Y-71325595D01*
X157765771Y-71325595D02*
X158003866Y-71325595D01*
X158003866Y-71325595D02*
X158194342Y-71373214D01*
X158194342Y-71373214D02*
X158289580Y-71420833D01*
X158289580Y-71420833D02*
X158337200Y-71468452D01*
X158337200Y-71468452D02*
X158384819Y-71563690D01*
X158384819Y-71563690D02*
X158384819Y-71658928D01*
X158384819Y-71658928D02*
X158337200Y-71754166D01*
X158337200Y-71754166D02*
X158289580Y-71801785D01*
X158289580Y-71801785D02*
X158194342Y-71849404D01*
X158194342Y-71849404D02*
X158003866Y-71897023D01*
X158003866Y-71897023D02*
X157765771Y-71897023D01*
X157765771Y-71897023D02*
X157575295Y-71849404D01*
X157575295Y-71849404D02*
X157480057Y-71801785D01*
X157480057Y-71801785D02*
X157432438Y-71754166D01*
X157432438Y-71754166D02*
X157384819Y-71658928D01*
X174304819Y-79642857D02*
X173828628Y-79976190D01*
X174304819Y-80214285D02*
X173304819Y-80214285D01*
X173304819Y-80214285D02*
X173304819Y-79833333D01*
X173304819Y-79833333D02*
X173352438Y-79738095D01*
X173352438Y-79738095D02*
X173400057Y-79690476D01*
X173400057Y-79690476D02*
X173495295Y-79642857D01*
X173495295Y-79642857D02*
X173638152Y-79642857D01*
X173638152Y-79642857D02*
X173733390Y-79690476D01*
X173733390Y-79690476D02*
X173781009Y-79738095D01*
X173781009Y-79738095D02*
X173828628Y-79833333D01*
X173828628Y-79833333D02*
X173828628Y-80214285D01*
X173400057Y-79261904D02*
X173352438Y-79214285D01*
X173352438Y-79214285D02*
X173304819Y-79119047D01*
X173304819Y-79119047D02*
X173304819Y-78880952D01*
X173304819Y-78880952D02*
X173352438Y-78785714D01*
X173352438Y-78785714D02*
X173400057Y-78738095D01*
X173400057Y-78738095D02*
X173495295Y-78690476D01*
X173495295Y-78690476D02*
X173590533Y-78690476D01*
X173590533Y-78690476D02*
X173733390Y-78738095D01*
X173733390Y-78738095D02*
X174304819Y-79309523D01*
X174304819Y-79309523D02*
X174304819Y-78690476D01*
X173733390Y-78119047D02*
X173685771Y-78214285D01*
X173685771Y-78214285D02*
X173638152Y-78261904D01*
X173638152Y-78261904D02*
X173542914Y-78309523D01*
X173542914Y-78309523D02*
X173495295Y-78309523D01*
X173495295Y-78309523D02*
X173400057Y-78261904D01*
X173400057Y-78261904D02*
X173352438Y-78214285D01*
X173352438Y-78214285D02*
X173304819Y-78119047D01*
X173304819Y-78119047D02*
X173304819Y-77928571D01*
X173304819Y-77928571D02*
X173352438Y-77833333D01*
X173352438Y-77833333D02*
X173400057Y-77785714D01*
X173400057Y-77785714D02*
X173495295Y-77738095D01*
X173495295Y-77738095D02*
X173542914Y-77738095D01*
X173542914Y-77738095D02*
X173638152Y-77785714D01*
X173638152Y-77785714D02*
X173685771Y-77833333D01*
X173685771Y-77833333D02*
X173733390Y-77928571D01*
X173733390Y-77928571D02*
X173733390Y-78119047D01*
X173733390Y-78119047D02*
X173781009Y-78214285D01*
X173781009Y-78214285D02*
X173828628Y-78261904D01*
X173828628Y-78261904D02*
X173923866Y-78309523D01*
X173923866Y-78309523D02*
X174114342Y-78309523D01*
X174114342Y-78309523D02*
X174209580Y-78261904D01*
X174209580Y-78261904D02*
X174257200Y-78214285D01*
X174257200Y-78214285D02*
X174304819Y-78119047D01*
X174304819Y-78119047D02*
X174304819Y-77928571D01*
X174304819Y-77928571D02*
X174257200Y-77833333D01*
X174257200Y-77833333D02*
X174209580Y-77785714D01*
X174209580Y-77785714D02*
X174114342Y-77738095D01*
X174114342Y-77738095D02*
X173923866Y-77738095D01*
X173923866Y-77738095D02*
X173828628Y-77785714D01*
X173828628Y-77785714D02*
X173781009Y-77833333D01*
X173781009Y-77833333D02*
X173733390Y-77928571D01*
X180238095Y-99914819D02*
X180238095Y-100724342D01*
X180238095Y-100724342D02*
X180285714Y-100819580D01*
X180285714Y-100819580D02*
X180333333Y-100867200D01*
X180333333Y-100867200D02*
X180428571Y-100914819D01*
X180428571Y-100914819D02*
X180619047Y-100914819D01*
X180619047Y-100914819D02*
X180714285Y-100867200D01*
X180714285Y-100867200D02*
X180761904Y-100819580D01*
X180761904Y-100819580D02*
X180809523Y-100724342D01*
X180809523Y-100724342D02*
X180809523Y-99914819D01*
X181190476Y-99914819D02*
X181809523Y-99914819D01*
X181809523Y-99914819D02*
X181476190Y-100295771D01*
X181476190Y-100295771D02*
X181619047Y-100295771D01*
X181619047Y-100295771D02*
X181714285Y-100343390D01*
X181714285Y-100343390D02*
X181761904Y-100391009D01*
X181761904Y-100391009D02*
X181809523Y-100486247D01*
X181809523Y-100486247D02*
X181809523Y-100724342D01*
X181809523Y-100724342D02*
X181761904Y-100819580D01*
X181761904Y-100819580D02*
X181714285Y-100867200D01*
X181714285Y-100867200D02*
X181619047Y-100914819D01*
X181619047Y-100914819D02*
X181333333Y-100914819D01*
X181333333Y-100914819D02*
X181238095Y-100867200D01*
X181238095Y-100867200D02*
X181190476Y-100819580D01*
X186054819Y-104013333D02*
X186769104Y-104013333D01*
X186769104Y-104013333D02*
X186911961Y-104060952D01*
X186911961Y-104060952D02*
X187007200Y-104156190D01*
X187007200Y-104156190D02*
X187054819Y-104299047D01*
X187054819Y-104299047D02*
X187054819Y-104394285D01*
X186054819Y-103632380D02*
X186054819Y-103013333D01*
X186054819Y-103013333D02*
X186435771Y-103346666D01*
X186435771Y-103346666D02*
X186435771Y-103203809D01*
X186435771Y-103203809D02*
X186483390Y-103108571D01*
X186483390Y-103108571D02*
X186531009Y-103060952D01*
X186531009Y-103060952D02*
X186626247Y-103013333D01*
X186626247Y-103013333D02*
X186864342Y-103013333D01*
X186864342Y-103013333D02*
X186959580Y-103060952D01*
X186959580Y-103060952D02*
X187007200Y-103108571D01*
X187007200Y-103108571D02*
X187054819Y-103203809D01*
X187054819Y-103203809D02*
X187054819Y-103489523D01*
X187054819Y-103489523D02*
X187007200Y-103584761D01*
X187007200Y-103584761D02*
X186959580Y-103632380D01*
X156134580Y-95104166D02*
X156182200Y-95151785D01*
X156182200Y-95151785D02*
X156229819Y-95294642D01*
X156229819Y-95294642D02*
X156229819Y-95389880D01*
X156229819Y-95389880D02*
X156182200Y-95532737D01*
X156182200Y-95532737D02*
X156086961Y-95627975D01*
X156086961Y-95627975D02*
X155991723Y-95675594D01*
X155991723Y-95675594D02*
X155801247Y-95723213D01*
X155801247Y-95723213D02*
X155658390Y-95723213D01*
X155658390Y-95723213D02*
X155467914Y-95675594D01*
X155467914Y-95675594D02*
X155372676Y-95627975D01*
X155372676Y-95627975D02*
X155277438Y-95532737D01*
X155277438Y-95532737D02*
X155229819Y-95389880D01*
X155229819Y-95389880D02*
X155229819Y-95294642D01*
X155229819Y-95294642D02*
X155277438Y-95151785D01*
X155277438Y-95151785D02*
X155325057Y-95104166D01*
X155229819Y-94247023D02*
X155229819Y-94437499D01*
X155229819Y-94437499D02*
X155277438Y-94532737D01*
X155277438Y-94532737D02*
X155325057Y-94580356D01*
X155325057Y-94580356D02*
X155467914Y-94675594D01*
X155467914Y-94675594D02*
X155658390Y-94723213D01*
X155658390Y-94723213D02*
X156039342Y-94723213D01*
X156039342Y-94723213D02*
X156134580Y-94675594D01*
X156134580Y-94675594D02*
X156182200Y-94627975D01*
X156182200Y-94627975D02*
X156229819Y-94532737D01*
X156229819Y-94532737D02*
X156229819Y-94342261D01*
X156229819Y-94342261D02*
X156182200Y-94247023D01*
X156182200Y-94247023D02*
X156134580Y-94199404D01*
X156134580Y-94199404D02*
X156039342Y-94151785D01*
X156039342Y-94151785D02*
X155801247Y-94151785D01*
X155801247Y-94151785D02*
X155706009Y-94199404D01*
X155706009Y-94199404D02*
X155658390Y-94247023D01*
X155658390Y-94247023D02*
X155610771Y-94342261D01*
X155610771Y-94342261D02*
X155610771Y-94532737D01*
X155610771Y-94532737D02*
X155658390Y-94627975D01*
X155658390Y-94627975D02*
X155706009Y-94675594D01*
X155706009Y-94675594D02*
X155801247Y-94723213D01*
X136519580Y-92686666D02*
X136567200Y-92734285D01*
X136567200Y-92734285D02*
X136614819Y-92877142D01*
X136614819Y-92877142D02*
X136614819Y-92972380D01*
X136614819Y-92972380D02*
X136567200Y-93115237D01*
X136567200Y-93115237D02*
X136471961Y-93210475D01*
X136471961Y-93210475D02*
X136376723Y-93258094D01*
X136376723Y-93258094D02*
X136186247Y-93305713D01*
X136186247Y-93305713D02*
X136043390Y-93305713D01*
X136043390Y-93305713D02*
X135852914Y-93258094D01*
X135852914Y-93258094D02*
X135757676Y-93210475D01*
X135757676Y-93210475D02*
X135662438Y-93115237D01*
X135662438Y-93115237D02*
X135614819Y-92972380D01*
X135614819Y-92972380D02*
X135614819Y-92877142D01*
X135614819Y-92877142D02*
X135662438Y-92734285D01*
X135662438Y-92734285D02*
X135710057Y-92686666D01*
X135948152Y-91829523D02*
X136614819Y-91829523D01*
X135567200Y-92067618D02*
X136281485Y-92305713D01*
X136281485Y-92305713D02*
X136281485Y-91686666D01*
X167369580Y-86452857D02*
X167417200Y-86500476D01*
X167417200Y-86500476D02*
X167464819Y-86643333D01*
X167464819Y-86643333D02*
X167464819Y-86738571D01*
X167464819Y-86738571D02*
X167417200Y-86881428D01*
X167417200Y-86881428D02*
X167321961Y-86976666D01*
X167321961Y-86976666D02*
X167226723Y-87024285D01*
X167226723Y-87024285D02*
X167036247Y-87071904D01*
X167036247Y-87071904D02*
X166893390Y-87071904D01*
X166893390Y-87071904D02*
X166702914Y-87024285D01*
X166702914Y-87024285D02*
X166607676Y-86976666D01*
X166607676Y-86976666D02*
X166512438Y-86881428D01*
X166512438Y-86881428D02*
X166464819Y-86738571D01*
X166464819Y-86738571D02*
X166464819Y-86643333D01*
X166464819Y-86643333D02*
X166512438Y-86500476D01*
X166512438Y-86500476D02*
X166560057Y-86452857D01*
X167464819Y-85500476D02*
X167464819Y-86071904D01*
X167464819Y-85786190D02*
X166464819Y-85786190D01*
X166464819Y-85786190D02*
X166607676Y-85881428D01*
X166607676Y-85881428D02*
X166702914Y-85976666D01*
X166702914Y-85976666D02*
X166750533Y-86071904D01*
X166464819Y-85167142D02*
X166464819Y-84548095D01*
X166464819Y-84548095D02*
X166845771Y-84881428D01*
X166845771Y-84881428D02*
X166845771Y-84738571D01*
X166845771Y-84738571D02*
X166893390Y-84643333D01*
X166893390Y-84643333D02*
X166941009Y-84595714D01*
X166941009Y-84595714D02*
X167036247Y-84548095D01*
X167036247Y-84548095D02*
X167274342Y-84548095D01*
X167274342Y-84548095D02*
X167369580Y-84595714D01*
X167369580Y-84595714D02*
X167417200Y-84643333D01*
X167417200Y-84643333D02*
X167464819Y-84738571D01*
X167464819Y-84738571D02*
X167464819Y-85024285D01*
X167464819Y-85024285D02*
X167417200Y-85119523D01*
X167417200Y-85119523D02*
X167369580Y-85167142D01*
X144857142Y-90804819D02*
X144523809Y-90328628D01*
X144285714Y-90804819D02*
X144285714Y-89804819D01*
X144285714Y-89804819D02*
X144666666Y-89804819D01*
X144666666Y-89804819D02*
X144761904Y-89852438D01*
X144761904Y-89852438D02*
X144809523Y-89900057D01*
X144809523Y-89900057D02*
X144857142Y-89995295D01*
X144857142Y-89995295D02*
X144857142Y-90138152D01*
X144857142Y-90138152D02*
X144809523Y-90233390D01*
X144809523Y-90233390D02*
X144761904Y-90281009D01*
X144761904Y-90281009D02*
X144666666Y-90328628D01*
X144666666Y-90328628D02*
X144285714Y-90328628D01*
X145238095Y-89900057D02*
X145285714Y-89852438D01*
X145285714Y-89852438D02*
X145380952Y-89804819D01*
X145380952Y-89804819D02*
X145619047Y-89804819D01*
X145619047Y-89804819D02*
X145714285Y-89852438D01*
X145714285Y-89852438D02*
X145761904Y-89900057D01*
X145761904Y-89900057D02*
X145809523Y-89995295D01*
X145809523Y-89995295D02*
X145809523Y-90090533D01*
X145809523Y-90090533D02*
X145761904Y-90233390D01*
X145761904Y-90233390D02*
X145190476Y-90804819D01*
X145190476Y-90804819D02*
X145809523Y-90804819D01*
X146285714Y-90804819D02*
X146476190Y-90804819D01*
X146476190Y-90804819D02*
X146571428Y-90757200D01*
X146571428Y-90757200D02*
X146619047Y-90709580D01*
X146619047Y-90709580D02*
X146714285Y-90566723D01*
X146714285Y-90566723D02*
X146761904Y-90376247D01*
X146761904Y-90376247D02*
X146761904Y-89995295D01*
X146761904Y-89995295D02*
X146714285Y-89900057D01*
X146714285Y-89900057D02*
X146666666Y-89852438D01*
X146666666Y-89852438D02*
X146571428Y-89804819D01*
X146571428Y-89804819D02*
X146380952Y-89804819D01*
X146380952Y-89804819D02*
X146285714Y-89852438D01*
X146285714Y-89852438D02*
X146238095Y-89900057D01*
X146238095Y-89900057D02*
X146190476Y-89995295D01*
X146190476Y-89995295D02*
X146190476Y-90233390D01*
X146190476Y-90233390D02*
X146238095Y-90328628D01*
X146238095Y-90328628D02*
X146285714Y-90376247D01*
X146285714Y-90376247D02*
X146380952Y-90423866D01*
X146380952Y-90423866D02*
X146571428Y-90423866D01*
X146571428Y-90423866D02*
X146666666Y-90376247D01*
X146666666Y-90376247D02*
X146714285Y-90328628D01*
X146714285Y-90328628D02*
X146761904Y-90233390D01*
X139960833Y-93849580D02*
X139913214Y-93897200D01*
X139913214Y-93897200D02*
X139770357Y-93944819D01*
X139770357Y-93944819D02*
X139675119Y-93944819D01*
X139675119Y-93944819D02*
X139532262Y-93897200D01*
X139532262Y-93897200D02*
X139437024Y-93801961D01*
X139437024Y-93801961D02*
X139389405Y-93706723D01*
X139389405Y-93706723D02*
X139341786Y-93516247D01*
X139341786Y-93516247D02*
X139341786Y-93373390D01*
X139341786Y-93373390D02*
X139389405Y-93182914D01*
X139389405Y-93182914D02*
X139437024Y-93087676D01*
X139437024Y-93087676D02*
X139532262Y-92992438D01*
X139532262Y-92992438D02*
X139675119Y-92944819D01*
X139675119Y-92944819D02*
X139770357Y-92944819D01*
X139770357Y-92944819D02*
X139913214Y-92992438D01*
X139913214Y-92992438D02*
X139960833Y-93040057D01*
X140437024Y-93944819D02*
X140627500Y-93944819D01*
X140627500Y-93944819D02*
X140722738Y-93897200D01*
X140722738Y-93897200D02*
X140770357Y-93849580D01*
X140770357Y-93849580D02*
X140865595Y-93706723D01*
X140865595Y-93706723D02*
X140913214Y-93516247D01*
X140913214Y-93516247D02*
X140913214Y-93135295D01*
X140913214Y-93135295D02*
X140865595Y-93040057D01*
X140865595Y-93040057D02*
X140817976Y-92992438D01*
X140817976Y-92992438D02*
X140722738Y-92944819D01*
X140722738Y-92944819D02*
X140532262Y-92944819D01*
X140532262Y-92944819D02*
X140437024Y-92992438D01*
X140437024Y-92992438D02*
X140389405Y-93040057D01*
X140389405Y-93040057D02*
X140341786Y-93135295D01*
X140341786Y-93135295D02*
X140341786Y-93373390D01*
X140341786Y-93373390D02*
X140389405Y-93468628D01*
X140389405Y-93468628D02*
X140437024Y-93516247D01*
X140437024Y-93516247D02*
X140532262Y-93563866D01*
X140532262Y-93563866D02*
X140722738Y-93563866D01*
X140722738Y-93563866D02*
X140817976Y-93516247D01*
X140817976Y-93516247D02*
X140865595Y-93468628D01*
X140865595Y-93468628D02*
X140913214Y-93373390D01*
X169763095Y-58149819D02*
X169763095Y-58959342D01*
X169763095Y-58959342D02*
X169810714Y-59054580D01*
X169810714Y-59054580D02*
X169858333Y-59102200D01*
X169858333Y-59102200D02*
X169953571Y-59149819D01*
X169953571Y-59149819D02*
X170144047Y-59149819D01*
X170144047Y-59149819D02*
X170239285Y-59102200D01*
X170239285Y-59102200D02*
X170286904Y-59054580D01*
X170286904Y-59054580D02*
X170334523Y-58959342D01*
X170334523Y-58959342D02*
X170334523Y-58149819D01*
X171334523Y-59149819D02*
X170763095Y-59149819D01*
X171048809Y-59149819D02*
X171048809Y-58149819D01*
X171048809Y-58149819D02*
X170953571Y-58292676D01*
X170953571Y-58292676D02*
X170858333Y-58387914D01*
X170858333Y-58387914D02*
X170763095Y-58435533D01*
X158524819Y-66730357D02*
X158048628Y-67063690D01*
X158524819Y-67301785D02*
X157524819Y-67301785D01*
X157524819Y-67301785D02*
X157524819Y-66920833D01*
X157524819Y-66920833D02*
X157572438Y-66825595D01*
X157572438Y-66825595D02*
X157620057Y-66777976D01*
X157620057Y-66777976D02*
X157715295Y-66730357D01*
X157715295Y-66730357D02*
X157858152Y-66730357D01*
X157858152Y-66730357D02*
X157953390Y-66777976D01*
X157953390Y-66777976D02*
X158001009Y-66825595D01*
X158001009Y-66825595D02*
X158048628Y-66920833D01*
X158048628Y-66920833D02*
X158048628Y-67301785D01*
X158524819Y-65777976D02*
X158524819Y-66349404D01*
X158524819Y-66063690D02*
X157524819Y-66063690D01*
X157524819Y-66063690D02*
X157667676Y-66158928D01*
X157667676Y-66158928D02*
X157762914Y-66254166D01*
X157762914Y-66254166D02*
X157810533Y-66349404D01*
X157524819Y-65444642D02*
X157524819Y-64825595D01*
X157524819Y-64825595D02*
X157905771Y-65158928D01*
X157905771Y-65158928D02*
X157905771Y-65016071D01*
X157905771Y-65016071D02*
X157953390Y-64920833D01*
X157953390Y-64920833D02*
X158001009Y-64873214D01*
X158001009Y-64873214D02*
X158096247Y-64825595D01*
X158096247Y-64825595D02*
X158334342Y-64825595D01*
X158334342Y-64825595D02*
X158429580Y-64873214D01*
X158429580Y-64873214D02*
X158477200Y-64920833D01*
X158477200Y-64920833D02*
X158524819Y-65016071D01*
X158524819Y-65016071D02*
X158524819Y-65301785D01*
X158524819Y-65301785D02*
X158477200Y-65397023D01*
X158477200Y-65397023D02*
X158429580Y-65444642D01*
X184357142Y-98164819D02*
X184023809Y-97688628D01*
X183785714Y-98164819D02*
X183785714Y-97164819D01*
X183785714Y-97164819D02*
X184166666Y-97164819D01*
X184166666Y-97164819D02*
X184261904Y-97212438D01*
X184261904Y-97212438D02*
X184309523Y-97260057D01*
X184309523Y-97260057D02*
X184357142Y-97355295D01*
X184357142Y-97355295D02*
X184357142Y-97498152D01*
X184357142Y-97498152D02*
X184309523Y-97593390D01*
X184309523Y-97593390D02*
X184261904Y-97641009D01*
X184261904Y-97641009D02*
X184166666Y-97688628D01*
X184166666Y-97688628D02*
X183785714Y-97688628D01*
X184738095Y-97260057D02*
X184785714Y-97212438D01*
X184785714Y-97212438D02*
X184880952Y-97164819D01*
X184880952Y-97164819D02*
X185119047Y-97164819D01*
X185119047Y-97164819D02*
X185214285Y-97212438D01*
X185214285Y-97212438D02*
X185261904Y-97260057D01*
X185261904Y-97260057D02*
X185309523Y-97355295D01*
X185309523Y-97355295D02*
X185309523Y-97450533D01*
X185309523Y-97450533D02*
X185261904Y-97593390D01*
X185261904Y-97593390D02*
X184690476Y-98164819D01*
X184690476Y-98164819D02*
X185309523Y-98164819D01*
X185642857Y-97164819D02*
X186309523Y-97164819D01*
X186309523Y-97164819D02*
X185880952Y-98164819D01*
X140484642Y-77849580D02*
X140437023Y-77897200D01*
X140437023Y-77897200D02*
X140294166Y-77944819D01*
X140294166Y-77944819D02*
X140198928Y-77944819D01*
X140198928Y-77944819D02*
X140056071Y-77897200D01*
X140056071Y-77897200D02*
X139960833Y-77801961D01*
X139960833Y-77801961D02*
X139913214Y-77706723D01*
X139913214Y-77706723D02*
X139865595Y-77516247D01*
X139865595Y-77516247D02*
X139865595Y-77373390D01*
X139865595Y-77373390D02*
X139913214Y-77182914D01*
X139913214Y-77182914D02*
X139960833Y-77087676D01*
X139960833Y-77087676D02*
X140056071Y-76992438D01*
X140056071Y-76992438D02*
X140198928Y-76944819D01*
X140198928Y-76944819D02*
X140294166Y-76944819D01*
X140294166Y-76944819D02*
X140437023Y-76992438D01*
X140437023Y-76992438D02*
X140484642Y-77040057D01*
X141437023Y-77944819D02*
X140865595Y-77944819D01*
X141151309Y-77944819D02*
X141151309Y-76944819D01*
X141151309Y-76944819D02*
X141056071Y-77087676D01*
X141056071Y-77087676D02*
X140960833Y-77182914D01*
X140960833Y-77182914D02*
X140865595Y-77230533D01*
X142056071Y-76944819D02*
X142151309Y-76944819D01*
X142151309Y-76944819D02*
X142246547Y-76992438D01*
X142246547Y-76992438D02*
X142294166Y-77040057D01*
X142294166Y-77040057D02*
X142341785Y-77135295D01*
X142341785Y-77135295D02*
X142389404Y-77325771D01*
X142389404Y-77325771D02*
X142389404Y-77563866D01*
X142389404Y-77563866D02*
X142341785Y-77754342D01*
X142341785Y-77754342D02*
X142294166Y-77849580D01*
X142294166Y-77849580D02*
X142246547Y-77897200D01*
X142246547Y-77897200D02*
X142151309Y-77944819D01*
X142151309Y-77944819D02*
X142056071Y-77944819D01*
X142056071Y-77944819D02*
X141960833Y-77897200D01*
X141960833Y-77897200D02*
X141913214Y-77849580D01*
X141913214Y-77849580D02*
X141865595Y-77754342D01*
X141865595Y-77754342D02*
X141817976Y-77563866D01*
X141817976Y-77563866D02*
X141817976Y-77325771D01*
X141817976Y-77325771D02*
X141865595Y-77135295D01*
X141865595Y-77135295D02*
X141913214Y-77040057D01*
X141913214Y-77040057D02*
X141960833Y-76992438D01*
X141960833Y-76992438D02*
X142056071Y-76944819D01*
X184554819Y-64190476D02*
X185269104Y-64190476D01*
X185269104Y-64190476D02*
X185411961Y-64238095D01*
X185411961Y-64238095D02*
X185507200Y-64333333D01*
X185507200Y-64333333D02*
X185554819Y-64476190D01*
X185554819Y-64476190D02*
X185554819Y-64571428D01*
X185507200Y-63761904D02*
X185554819Y-63619047D01*
X185554819Y-63619047D02*
X185554819Y-63380952D01*
X185554819Y-63380952D02*
X185507200Y-63285714D01*
X185507200Y-63285714D02*
X185459580Y-63238095D01*
X185459580Y-63238095D02*
X185364342Y-63190476D01*
X185364342Y-63190476D02*
X185269104Y-63190476D01*
X185269104Y-63190476D02*
X185173866Y-63238095D01*
X185173866Y-63238095D02*
X185126247Y-63285714D01*
X185126247Y-63285714D02*
X185078628Y-63380952D01*
X185078628Y-63380952D02*
X185031009Y-63571428D01*
X185031009Y-63571428D02*
X184983390Y-63666666D01*
X184983390Y-63666666D02*
X184935771Y-63714285D01*
X184935771Y-63714285D02*
X184840533Y-63761904D01*
X184840533Y-63761904D02*
X184745295Y-63761904D01*
X184745295Y-63761904D02*
X184650057Y-63714285D01*
X184650057Y-63714285D02*
X184602438Y-63666666D01*
X184602438Y-63666666D02*
X184554819Y-63571428D01*
X184554819Y-63571428D02*
X184554819Y-63333333D01*
X184554819Y-63333333D02*
X184602438Y-63190476D01*
X184554819Y-62904761D02*
X184554819Y-62333333D01*
X185554819Y-62619047D02*
X184554819Y-62619047D01*
X185554819Y-61476190D02*
X185554819Y-62047618D01*
X185554819Y-61761904D02*
X184554819Y-61761904D01*
X184554819Y-61761904D02*
X184697676Y-61857142D01*
X184697676Y-61857142D02*
X184792914Y-61952380D01*
X184792914Y-61952380D02*
X184840533Y-62047618D01*
X167458333Y-100384819D02*
X166982143Y-100384819D01*
X166982143Y-100384819D02*
X166982143Y-99384819D01*
X168315476Y-100384819D02*
X167744048Y-100384819D01*
X168029762Y-100384819D02*
X168029762Y-99384819D01*
X168029762Y-99384819D02*
X167934524Y-99527676D01*
X167934524Y-99527676D02*
X167839286Y-99622914D01*
X167839286Y-99622914D02*
X167744048Y-99670533D01*
X160287319Y-95786904D02*
X161096842Y-95786904D01*
X161096842Y-95786904D02*
X161192080Y-95739285D01*
X161192080Y-95739285D02*
X161239700Y-95691666D01*
X161239700Y-95691666D02*
X161287319Y-95596428D01*
X161287319Y-95596428D02*
X161287319Y-95405952D01*
X161287319Y-95405952D02*
X161239700Y-95310714D01*
X161239700Y-95310714D02*
X161192080Y-95263095D01*
X161192080Y-95263095D02*
X161096842Y-95215476D01*
X161096842Y-95215476D02*
X160287319Y-95215476D01*
X160620652Y-94310714D02*
X161287319Y-94310714D01*
X160239700Y-94548809D02*
X160953985Y-94786904D01*
X160953985Y-94786904D02*
X160953985Y-94167857D01*
X180705833Y-94729580D02*
X180658214Y-94777200D01*
X180658214Y-94777200D02*
X180515357Y-94824819D01*
X180515357Y-94824819D02*
X180420119Y-94824819D01*
X180420119Y-94824819D02*
X180277262Y-94777200D01*
X180277262Y-94777200D02*
X180182024Y-94681961D01*
X180182024Y-94681961D02*
X180134405Y-94586723D01*
X180134405Y-94586723D02*
X180086786Y-94396247D01*
X180086786Y-94396247D02*
X180086786Y-94253390D01*
X180086786Y-94253390D02*
X180134405Y-94062914D01*
X180134405Y-94062914D02*
X180182024Y-93967676D01*
X180182024Y-93967676D02*
X180277262Y-93872438D01*
X180277262Y-93872438D02*
X180420119Y-93824819D01*
X180420119Y-93824819D02*
X180515357Y-93824819D01*
X180515357Y-93824819D02*
X180658214Y-93872438D01*
X180658214Y-93872438D02*
X180705833Y-93920057D01*
X181610595Y-93824819D02*
X181134405Y-93824819D01*
X181134405Y-93824819D02*
X181086786Y-94301009D01*
X181086786Y-94301009D02*
X181134405Y-94253390D01*
X181134405Y-94253390D02*
X181229643Y-94205771D01*
X181229643Y-94205771D02*
X181467738Y-94205771D01*
X181467738Y-94205771D02*
X181562976Y-94253390D01*
X181562976Y-94253390D02*
X181610595Y-94301009D01*
X181610595Y-94301009D02*
X181658214Y-94396247D01*
X181658214Y-94396247D02*
X181658214Y-94634342D01*
X181658214Y-94634342D02*
X181610595Y-94729580D01*
X181610595Y-94729580D02*
X181562976Y-94777200D01*
X181562976Y-94777200D02*
X181467738Y-94824819D01*
X181467738Y-94824819D02*
X181229643Y-94824819D01*
X181229643Y-94824819D02*
X181134405Y-94777200D01*
X181134405Y-94777200D02*
X181086786Y-94729580D01*
X158349580Y-82867857D02*
X158397200Y-82915476D01*
X158397200Y-82915476D02*
X158444819Y-83058333D01*
X158444819Y-83058333D02*
X158444819Y-83153571D01*
X158444819Y-83153571D02*
X158397200Y-83296428D01*
X158397200Y-83296428D02*
X158301961Y-83391666D01*
X158301961Y-83391666D02*
X158206723Y-83439285D01*
X158206723Y-83439285D02*
X158016247Y-83486904D01*
X158016247Y-83486904D02*
X157873390Y-83486904D01*
X157873390Y-83486904D02*
X157682914Y-83439285D01*
X157682914Y-83439285D02*
X157587676Y-83391666D01*
X157587676Y-83391666D02*
X157492438Y-83296428D01*
X157492438Y-83296428D02*
X157444819Y-83153571D01*
X157444819Y-83153571D02*
X157444819Y-83058333D01*
X157444819Y-83058333D02*
X157492438Y-82915476D01*
X157492438Y-82915476D02*
X157540057Y-82867857D01*
X158444819Y-81915476D02*
X158444819Y-82486904D01*
X158444819Y-82201190D02*
X157444819Y-82201190D01*
X157444819Y-82201190D02*
X157587676Y-82296428D01*
X157587676Y-82296428D02*
X157682914Y-82391666D01*
X157682914Y-82391666D02*
X157730533Y-82486904D01*
X158444819Y-80963095D02*
X158444819Y-81534523D01*
X158444819Y-81248809D02*
X157444819Y-81248809D01*
X157444819Y-81248809D02*
X157587676Y-81344047D01*
X157587676Y-81344047D02*
X157682914Y-81439285D01*
X157682914Y-81439285D02*
X157730533Y-81534523D01*
X126604819Y-78142857D02*
X126128628Y-78476190D01*
X126604819Y-78714285D02*
X125604819Y-78714285D01*
X125604819Y-78714285D02*
X125604819Y-78333333D01*
X125604819Y-78333333D02*
X125652438Y-78238095D01*
X125652438Y-78238095D02*
X125700057Y-78190476D01*
X125700057Y-78190476D02*
X125795295Y-78142857D01*
X125795295Y-78142857D02*
X125938152Y-78142857D01*
X125938152Y-78142857D02*
X126033390Y-78190476D01*
X126033390Y-78190476D02*
X126081009Y-78238095D01*
X126081009Y-78238095D02*
X126128628Y-78333333D01*
X126128628Y-78333333D02*
X126128628Y-78714285D01*
X125700057Y-77761904D02*
X125652438Y-77714285D01*
X125652438Y-77714285D02*
X125604819Y-77619047D01*
X125604819Y-77619047D02*
X125604819Y-77380952D01*
X125604819Y-77380952D02*
X125652438Y-77285714D01*
X125652438Y-77285714D02*
X125700057Y-77238095D01*
X125700057Y-77238095D02*
X125795295Y-77190476D01*
X125795295Y-77190476D02*
X125890533Y-77190476D01*
X125890533Y-77190476D02*
X126033390Y-77238095D01*
X126033390Y-77238095D02*
X126604819Y-77809523D01*
X126604819Y-77809523D02*
X126604819Y-77190476D01*
X125604819Y-76285714D02*
X125604819Y-76761904D01*
X125604819Y-76761904D02*
X126081009Y-76809523D01*
X126081009Y-76809523D02*
X126033390Y-76761904D01*
X126033390Y-76761904D02*
X125985771Y-76666666D01*
X125985771Y-76666666D02*
X125985771Y-76428571D01*
X125985771Y-76428571D02*
X126033390Y-76333333D01*
X126033390Y-76333333D02*
X126081009Y-76285714D01*
X126081009Y-76285714D02*
X126176247Y-76238095D01*
X126176247Y-76238095D02*
X126414342Y-76238095D01*
X126414342Y-76238095D02*
X126509580Y-76285714D01*
X126509580Y-76285714D02*
X126557200Y-76333333D01*
X126557200Y-76333333D02*
X126604819Y-76428571D01*
X126604819Y-76428571D02*
X126604819Y-76666666D01*
X126604819Y-76666666D02*
X126557200Y-76761904D01*
X126557200Y-76761904D02*
X126509580Y-76809523D01*
X181454819Y-89783333D02*
X182169104Y-89783333D01*
X182169104Y-89783333D02*
X182311961Y-89830952D01*
X182311961Y-89830952D02*
X182407200Y-89926190D01*
X182407200Y-89926190D02*
X182454819Y-90069047D01*
X182454819Y-90069047D02*
X182454819Y-90164285D01*
X182454819Y-89307142D02*
X181454819Y-89307142D01*
X181454819Y-89307142D02*
X181454819Y-88926190D01*
X181454819Y-88926190D02*
X181502438Y-88830952D01*
X181502438Y-88830952D02*
X181550057Y-88783333D01*
X181550057Y-88783333D02*
X181645295Y-88735714D01*
X181645295Y-88735714D02*
X181788152Y-88735714D01*
X181788152Y-88735714D02*
X181883390Y-88783333D01*
X181883390Y-88783333D02*
X181931009Y-88830952D01*
X181931009Y-88830952D02*
X181978628Y-88926190D01*
X181978628Y-88926190D02*
X181978628Y-89307142D01*
X182454819Y-87783333D02*
X182454819Y-88354761D01*
X182454819Y-88069047D02*
X181454819Y-88069047D01*
X181454819Y-88069047D02*
X181597676Y-88164285D01*
X181597676Y-88164285D02*
X181692914Y-88259523D01*
X181692914Y-88259523D02*
X181740533Y-88354761D01*
X150857142Y-62884819D02*
X150523809Y-62408628D01*
X150285714Y-62884819D02*
X150285714Y-61884819D01*
X150285714Y-61884819D02*
X150666666Y-61884819D01*
X150666666Y-61884819D02*
X150761904Y-61932438D01*
X150761904Y-61932438D02*
X150809523Y-61980057D01*
X150809523Y-61980057D02*
X150857142Y-62075295D01*
X150857142Y-62075295D02*
X150857142Y-62218152D01*
X150857142Y-62218152D02*
X150809523Y-62313390D01*
X150809523Y-62313390D02*
X150761904Y-62361009D01*
X150761904Y-62361009D02*
X150666666Y-62408628D01*
X150666666Y-62408628D02*
X150285714Y-62408628D01*
X151809523Y-62884819D02*
X151238095Y-62884819D01*
X151523809Y-62884819D02*
X151523809Y-61884819D01*
X151523809Y-61884819D02*
X151428571Y-62027676D01*
X151428571Y-62027676D02*
X151333333Y-62122914D01*
X151333333Y-62122914D02*
X151238095Y-62170533D01*
X152285714Y-62884819D02*
X152476190Y-62884819D01*
X152476190Y-62884819D02*
X152571428Y-62837200D01*
X152571428Y-62837200D02*
X152619047Y-62789580D01*
X152619047Y-62789580D02*
X152714285Y-62646723D01*
X152714285Y-62646723D02*
X152761904Y-62456247D01*
X152761904Y-62456247D02*
X152761904Y-62075295D01*
X152761904Y-62075295D02*
X152714285Y-61980057D01*
X152714285Y-61980057D02*
X152666666Y-61932438D01*
X152666666Y-61932438D02*
X152571428Y-61884819D01*
X152571428Y-61884819D02*
X152380952Y-61884819D01*
X152380952Y-61884819D02*
X152285714Y-61932438D01*
X152285714Y-61932438D02*
X152238095Y-61980057D01*
X152238095Y-61980057D02*
X152190476Y-62075295D01*
X152190476Y-62075295D02*
X152190476Y-62313390D01*
X152190476Y-62313390D02*
X152238095Y-62408628D01*
X152238095Y-62408628D02*
X152285714Y-62456247D01*
X152285714Y-62456247D02*
X152380952Y-62503866D01*
X152380952Y-62503866D02*
X152571428Y-62503866D01*
X152571428Y-62503866D02*
X152666666Y-62456247D01*
X152666666Y-62456247D02*
X152714285Y-62408628D01*
X152714285Y-62408628D02*
X152761904Y-62313390D01*
X173304819Y-98002857D02*
X172828628Y-98336190D01*
X173304819Y-98574285D02*
X172304819Y-98574285D01*
X172304819Y-98574285D02*
X172304819Y-98193333D01*
X172304819Y-98193333D02*
X172352438Y-98098095D01*
X172352438Y-98098095D02*
X172400057Y-98050476D01*
X172400057Y-98050476D02*
X172495295Y-98002857D01*
X172495295Y-98002857D02*
X172638152Y-98002857D01*
X172638152Y-98002857D02*
X172733390Y-98050476D01*
X172733390Y-98050476D02*
X172781009Y-98098095D01*
X172781009Y-98098095D02*
X172828628Y-98193333D01*
X172828628Y-98193333D02*
X172828628Y-98574285D01*
X172400057Y-97621904D02*
X172352438Y-97574285D01*
X172352438Y-97574285D02*
X172304819Y-97479047D01*
X172304819Y-97479047D02*
X172304819Y-97240952D01*
X172304819Y-97240952D02*
X172352438Y-97145714D01*
X172352438Y-97145714D02*
X172400057Y-97098095D01*
X172400057Y-97098095D02*
X172495295Y-97050476D01*
X172495295Y-97050476D02*
X172590533Y-97050476D01*
X172590533Y-97050476D02*
X172733390Y-97098095D01*
X172733390Y-97098095D02*
X173304819Y-97669523D01*
X173304819Y-97669523D02*
X173304819Y-97050476D01*
X172304819Y-96717142D02*
X172304819Y-96098095D01*
X172304819Y-96098095D02*
X172685771Y-96431428D01*
X172685771Y-96431428D02*
X172685771Y-96288571D01*
X172685771Y-96288571D02*
X172733390Y-96193333D01*
X172733390Y-96193333D02*
X172781009Y-96145714D01*
X172781009Y-96145714D02*
X172876247Y-96098095D01*
X172876247Y-96098095D02*
X173114342Y-96098095D01*
X173114342Y-96098095D02*
X173209580Y-96145714D01*
X173209580Y-96145714D02*
X173257200Y-96193333D01*
X173257200Y-96193333D02*
X173304819Y-96288571D01*
X173304819Y-96288571D02*
X173304819Y-96574285D01*
X173304819Y-96574285D02*
X173257200Y-96669523D01*
X173257200Y-96669523D02*
X173209580Y-96717142D01*
X151804819Y-92254166D02*
X151328628Y-92587499D01*
X151804819Y-92825594D02*
X150804819Y-92825594D01*
X150804819Y-92825594D02*
X150804819Y-92444642D01*
X150804819Y-92444642D02*
X150852438Y-92349404D01*
X150852438Y-92349404D02*
X150900057Y-92301785D01*
X150900057Y-92301785D02*
X150995295Y-92254166D01*
X150995295Y-92254166D02*
X151138152Y-92254166D01*
X151138152Y-92254166D02*
X151233390Y-92301785D01*
X151233390Y-92301785D02*
X151281009Y-92349404D01*
X151281009Y-92349404D02*
X151328628Y-92444642D01*
X151328628Y-92444642D02*
X151328628Y-92825594D01*
X151804819Y-91777975D02*
X151804819Y-91587499D01*
X151804819Y-91587499D02*
X151757200Y-91492261D01*
X151757200Y-91492261D02*
X151709580Y-91444642D01*
X151709580Y-91444642D02*
X151566723Y-91349404D01*
X151566723Y-91349404D02*
X151376247Y-91301785D01*
X151376247Y-91301785D02*
X150995295Y-91301785D01*
X150995295Y-91301785D02*
X150900057Y-91349404D01*
X150900057Y-91349404D02*
X150852438Y-91397023D01*
X150852438Y-91397023D02*
X150804819Y-91492261D01*
X150804819Y-91492261D02*
X150804819Y-91682737D01*
X150804819Y-91682737D02*
X150852438Y-91777975D01*
X150852438Y-91777975D02*
X150900057Y-91825594D01*
X150900057Y-91825594D02*
X150995295Y-91873213D01*
X150995295Y-91873213D02*
X151233390Y-91873213D01*
X151233390Y-91873213D02*
X151328628Y-91825594D01*
X151328628Y-91825594D02*
X151376247Y-91777975D01*
X151376247Y-91777975D02*
X151423866Y-91682737D01*
X151423866Y-91682737D02*
X151423866Y-91492261D01*
X151423866Y-91492261D02*
X151376247Y-91397023D01*
X151376247Y-91397023D02*
X151328628Y-91349404D01*
X151328628Y-91349404D02*
X151233390Y-91301785D01*
X138863095Y-67454819D02*
X138863095Y-66454819D01*
X138863095Y-66454819D02*
X139244047Y-66454819D01*
X139244047Y-66454819D02*
X139339285Y-66502438D01*
X139339285Y-66502438D02*
X139386904Y-66550057D01*
X139386904Y-66550057D02*
X139434523Y-66645295D01*
X139434523Y-66645295D02*
X139434523Y-66788152D01*
X139434523Y-66788152D02*
X139386904Y-66883390D01*
X139386904Y-66883390D02*
X139339285Y-66931009D01*
X139339285Y-66931009D02*
X139244047Y-66978628D01*
X139244047Y-66978628D02*
X138863095Y-66978628D01*
X139863095Y-67454819D02*
X139863095Y-66788152D01*
X139863095Y-66978628D02*
X139910714Y-66883390D01*
X139910714Y-66883390D02*
X139958333Y-66835771D01*
X139958333Y-66835771D02*
X140053571Y-66788152D01*
X140053571Y-66788152D02*
X140148809Y-66788152D01*
X140482143Y-67454819D02*
X140482143Y-66788152D01*
X140482143Y-66454819D02*
X140434524Y-66502438D01*
X140434524Y-66502438D02*
X140482143Y-66550057D01*
X140482143Y-66550057D02*
X140529762Y-66502438D01*
X140529762Y-66502438D02*
X140482143Y-66454819D01*
X140482143Y-66454819D02*
X140482143Y-66550057D01*
X140958333Y-67454819D02*
X140958333Y-66788152D01*
X140958333Y-66883390D02*
X141005952Y-66835771D01*
X141005952Y-66835771D02*
X141101190Y-66788152D01*
X141101190Y-66788152D02*
X141244047Y-66788152D01*
X141244047Y-66788152D02*
X141339285Y-66835771D01*
X141339285Y-66835771D02*
X141386904Y-66931009D01*
X141386904Y-66931009D02*
X141386904Y-67454819D01*
X141386904Y-66931009D02*
X141434523Y-66835771D01*
X141434523Y-66835771D02*
X141529761Y-66788152D01*
X141529761Y-66788152D02*
X141672618Y-66788152D01*
X141672618Y-66788152D02*
X141767857Y-66835771D01*
X141767857Y-66835771D02*
X141815476Y-66931009D01*
X141815476Y-66931009D02*
X141815476Y-67454819D01*
X142720237Y-67454819D02*
X142720237Y-66931009D01*
X142720237Y-66931009D02*
X142672618Y-66835771D01*
X142672618Y-66835771D02*
X142577380Y-66788152D01*
X142577380Y-66788152D02*
X142386904Y-66788152D01*
X142386904Y-66788152D02*
X142291666Y-66835771D01*
X142720237Y-67407200D02*
X142624999Y-67454819D01*
X142624999Y-67454819D02*
X142386904Y-67454819D01*
X142386904Y-67454819D02*
X142291666Y-67407200D01*
X142291666Y-67407200D02*
X142244047Y-67311961D01*
X142244047Y-67311961D02*
X142244047Y-67216723D01*
X142244047Y-67216723D02*
X142291666Y-67121485D01*
X142291666Y-67121485D02*
X142386904Y-67073866D01*
X142386904Y-67073866D02*
X142624999Y-67073866D01*
X142624999Y-67073866D02*
X142720237Y-67026247D01*
X143196428Y-67454819D02*
X143196428Y-66788152D01*
X143196428Y-66978628D02*
X143244047Y-66883390D01*
X143244047Y-66883390D02*
X143291666Y-66835771D01*
X143291666Y-66835771D02*
X143386904Y-66788152D01*
X143386904Y-66788152D02*
X143482142Y-66788152D01*
X143720238Y-66788152D02*
X143958333Y-67454819D01*
X144196428Y-66788152D02*
X143958333Y-67454819D01*
X143958333Y-67454819D02*
X143863095Y-67692914D01*
X143863095Y-67692914D02*
X143815476Y-67740533D01*
X143815476Y-67740533D02*
X143720238Y-67788152D01*
X144577381Y-67454819D02*
X144577381Y-66454819D01*
X144577381Y-66454819D02*
X144815476Y-66454819D01*
X144815476Y-66454819D02*
X144958333Y-66502438D01*
X144958333Y-66502438D02*
X145053571Y-66597676D01*
X145053571Y-66597676D02*
X145101190Y-66692914D01*
X145101190Y-66692914D02*
X145148809Y-66883390D01*
X145148809Y-66883390D02*
X145148809Y-67026247D01*
X145148809Y-67026247D02*
X145101190Y-67216723D01*
X145101190Y-67216723D02*
X145053571Y-67311961D01*
X145053571Y-67311961D02*
X144958333Y-67407200D01*
X144958333Y-67407200D02*
X144815476Y-67454819D01*
X144815476Y-67454819D02*
X144577381Y-67454819D01*
X145577381Y-67454819D02*
X145577381Y-66788152D01*
X145577381Y-66978628D02*
X145625000Y-66883390D01*
X145625000Y-66883390D02*
X145672619Y-66835771D01*
X145672619Y-66835771D02*
X145767857Y-66788152D01*
X145767857Y-66788152D02*
X145863095Y-66788152D01*
X146196429Y-67454819D02*
X146196429Y-66788152D01*
X146196429Y-66454819D02*
X146148810Y-66502438D01*
X146148810Y-66502438D02*
X146196429Y-66550057D01*
X146196429Y-66550057D02*
X146244048Y-66502438D01*
X146244048Y-66502438D02*
X146196429Y-66454819D01*
X146196429Y-66454819D02*
X146196429Y-66550057D01*
X146577381Y-66788152D02*
X146815476Y-67454819D01*
X146815476Y-67454819D02*
X147053571Y-66788152D01*
X147815476Y-67407200D02*
X147720238Y-67454819D01*
X147720238Y-67454819D02*
X147529762Y-67454819D01*
X147529762Y-67454819D02*
X147434524Y-67407200D01*
X147434524Y-67407200D02*
X147386905Y-67311961D01*
X147386905Y-67311961D02*
X147386905Y-66931009D01*
X147386905Y-66931009D02*
X147434524Y-66835771D01*
X147434524Y-66835771D02*
X147529762Y-66788152D01*
X147529762Y-66788152D02*
X147720238Y-66788152D01*
X147720238Y-66788152D02*
X147815476Y-66835771D01*
X147815476Y-66835771D02*
X147863095Y-66931009D01*
X147863095Y-66931009D02*
X147863095Y-67026247D01*
X147863095Y-67026247D02*
X147386905Y-67121485D01*
X148291667Y-67454819D02*
X148291667Y-66788152D01*
X148291667Y-66978628D02*
X148339286Y-66883390D01*
X148339286Y-66883390D02*
X148386905Y-66835771D01*
X148386905Y-66835771D02*
X148482143Y-66788152D01*
X148482143Y-66788152D02*
X148577381Y-66788152D01*
X149434524Y-67454819D02*
X148863096Y-67454819D01*
X149148810Y-67454819D02*
X149148810Y-66454819D01*
X149148810Y-66454819D02*
X149053572Y-66597676D01*
X149053572Y-66597676D02*
X148958334Y-66692914D01*
X148958334Y-66692914D02*
X148863096Y-66740533D01*
X126604819Y-96642857D02*
X126128628Y-96976190D01*
X126604819Y-97214285D02*
X125604819Y-97214285D01*
X125604819Y-97214285D02*
X125604819Y-96833333D01*
X125604819Y-96833333D02*
X125652438Y-96738095D01*
X125652438Y-96738095D02*
X125700057Y-96690476D01*
X125700057Y-96690476D02*
X125795295Y-96642857D01*
X125795295Y-96642857D02*
X125938152Y-96642857D01*
X125938152Y-96642857D02*
X126033390Y-96690476D01*
X126033390Y-96690476D02*
X126081009Y-96738095D01*
X126081009Y-96738095D02*
X126128628Y-96833333D01*
X126128628Y-96833333D02*
X126128628Y-97214285D01*
X126604819Y-95690476D02*
X126604819Y-96261904D01*
X126604819Y-95976190D02*
X125604819Y-95976190D01*
X125604819Y-95976190D02*
X125747676Y-96071428D01*
X125747676Y-96071428D02*
X125842914Y-96166666D01*
X125842914Y-96166666D02*
X125890533Y-96261904D01*
X126033390Y-95119047D02*
X125985771Y-95214285D01*
X125985771Y-95214285D02*
X125938152Y-95261904D01*
X125938152Y-95261904D02*
X125842914Y-95309523D01*
X125842914Y-95309523D02*
X125795295Y-95309523D01*
X125795295Y-95309523D02*
X125700057Y-95261904D01*
X125700057Y-95261904D02*
X125652438Y-95214285D01*
X125652438Y-95214285D02*
X125604819Y-95119047D01*
X125604819Y-95119047D02*
X125604819Y-94928571D01*
X125604819Y-94928571D02*
X125652438Y-94833333D01*
X125652438Y-94833333D02*
X125700057Y-94785714D01*
X125700057Y-94785714D02*
X125795295Y-94738095D01*
X125795295Y-94738095D02*
X125842914Y-94738095D01*
X125842914Y-94738095D02*
X125938152Y-94785714D01*
X125938152Y-94785714D02*
X125985771Y-94833333D01*
X125985771Y-94833333D02*
X126033390Y-94928571D01*
X126033390Y-94928571D02*
X126033390Y-95119047D01*
X126033390Y-95119047D02*
X126081009Y-95214285D01*
X126081009Y-95214285D02*
X126128628Y-95261904D01*
X126128628Y-95261904D02*
X126223866Y-95309523D01*
X126223866Y-95309523D02*
X126414342Y-95309523D01*
X126414342Y-95309523D02*
X126509580Y-95261904D01*
X126509580Y-95261904D02*
X126557200Y-95214285D01*
X126557200Y-95214285D02*
X126604819Y-95119047D01*
X126604819Y-95119047D02*
X126604819Y-94928571D01*
X126604819Y-94928571D02*
X126557200Y-94833333D01*
X126557200Y-94833333D02*
X126509580Y-94785714D01*
X126509580Y-94785714D02*
X126414342Y-94738095D01*
X126414342Y-94738095D02*
X126223866Y-94738095D01*
X126223866Y-94738095D02*
X126128628Y-94785714D01*
X126128628Y-94785714D02*
X126081009Y-94833333D01*
X126081009Y-94833333D02*
X126033390Y-94928571D01*
X149804819Y-75142857D02*
X149328628Y-75476190D01*
X149804819Y-75714285D02*
X148804819Y-75714285D01*
X148804819Y-75714285D02*
X148804819Y-75333333D01*
X148804819Y-75333333D02*
X148852438Y-75238095D01*
X148852438Y-75238095D02*
X148900057Y-75190476D01*
X148900057Y-75190476D02*
X148995295Y-75142857D01*
X148995295Y-75142857D02*
X149138152Y-75142857D01*
X149138152Y-75142857D02*
X149233390Y-75190476D01*
X149233390Y-75190476D02*
X149281009Y-75238095D01*
X149281009Y-75238095D02*
X149328628Y-75333333D01*
X149328628Y-75333333D02*
X149328628Y-75714285D01*
X149804819Y-74190476D02*
X149804819Y-74761904D01*
X149804819Y-74476190D02*
X148804819Y-74476190D01*
X148804819Y-74476190D02*
X148947676Y-74571428D01*
X148947676Y-74571428D02*
X149042914Y-74666666D01*
X149042914Y-74666666D02*
X149090533Y-74761904D01*
X149138152Y-73333333D02*
X149804819Y-73333333D01*
X148757200Y-73571428D02*
X149471485Y-73809523D01*
X149471485Y-73809523D02*
X149471485Y-73190476D01*
X129936666Y-61884819D02*
X129936666Y-62599104D01*
X129936666Y-62599104D02*
X129889047Y-62741961D01*
X129889047Y-62741961D02*
X129793809Y-62837200D01*
X129793809Y-62837200D02*
X129650952Y-62884819D01*
X129650952Y-62884819D02*
X129555714Y-62884819D01*
X130936666Y-62884819D02*
X130365238Y-62884819D01*
X130650952Y-62884819D02*
X130650952Y-61884819D01*
X130650952Y-61884819D02*
X130555714Y-62027676D01*
X130555714Y-62027676D02*
X130460476Y-62122914D01*
X130460476Y-62122914D02*
X130365238Y-62170533D01*
X162304819Y-69666666D02*
X161828628Y-69999999D01*
X162304819Y-70238094D02*
X161304819Y-70238094D01*
X161304819Y-70238094D02*
X161304819Y-69857142D01*
X161304819Y-69857142D02*
X161352438Y-69761904D01*
X161352438Y-69761904D02*
X161400057Y-69714285D01*
X161400057Y-69714285D02*
X161495295Y-69666666D01*
X161495295Y-69666666D02*
X161638152Y-69666666D01*
X161638152Y-69666666D02*
X161733390Y-69714285D01*
X161733390Y-69714285D02*
X161781009Y-69761904D01*
X161781009Y-69761904D02*
X161828628Y-69857142D01*
X161828628Y-69857142D02*
X161828628Y-70238094D01*
X162304819Y-68714285D02*
X162304819Y-69285713D01*
X162304819Y-68999999D02*
X161304819Y-68999999D01*
X161304819Y-68999999D02*
X161447676Y-69095237D01*
X161447676Y-69095237D02*
X161542914Y-69190475D01*
X161542914Y-69190475D02*
X161590533Y-69285713D01*
X144857142Y-74804819D02*
X144523809Y-74328628D01*
X144285714Y-74804819D02*
X144285714Y-73804819D01*
X144285714Y-73804819D02*
X144666666Y-73804819D01*
X144666666Y-73804819D02*
X144761904Y-73852438D01*
X144761904Y-73852438D02*
X144809523Y-73900057D01*
X144809523Y-73900057D02*
X144857142Y-73995295D01*
X144857142Y-73995295D02*
X144857142Y-74138152D01*
X144857142Y-74138152D02*
X144809523Y-74233390D01*
X144809523Y-74233390D02*
X144761904Y-74281009D01*
X144761904Y-74281009D02*
X144666666Y-74328628D01*
X144666666Y-74328628D02*
X144285714Y-74328628D01*
X145190476Y-73804819D02*
X145809523Y-73804819D01*
X145809523Y-73804819D02*
X145476190Y-74185771D01*
X145476190Y-74185771D02*
X145619047Y-74185771D01*
X145619047Y-74185771D02*
X145714285Y-74233390D01*
X145714285Y-74233390D02*
X145761904Y-74281009D01*
X145761904Y-74281009D02*
X145809523Y-74376247D01*
X145809523Y-74376247D02*
X145809523Y-74614342D01*
X145809523Y-74614342D02*
X145761904Y-74709580D01*
X145761904Y-74709580D02*
X145714285Y-74757200D01*
X145714285Y-74757200D02*
X145619047Y-74804819D01*
X145619047Y-74804819D02*
X145333333Y-74804819D01*
X145333333Y-74804819D02*
X145238095Y-74757200D01*
X145238095Y-74757200D02*
X145190476Y-74709580D01*
X146761904Y-74804819D02*
X146190476Y-74804819D01*
X146476190Y-74804819D02*
X146476190Y-73804819D01*
X146476190Y-73804819D02*
X146380952Y-73947676D01*
X146380952Y-73947676D02*
X146285714Y-74042914D01*
X146285714Y-74042914D02*
X146190476Y-74090533D01*
X170304819Y-79642857D02*
X169828628Y-79976190D01*
X170304819Y-80214285D02*
X169304819Y-80214285D01*
X169304819Y-80214285D02*
X169304819Y-79833333D01*
X169304819Y-79833333D02*
X169352438Y-79738095D01*
X169352438Y-79738095D02*
X169400057Y-79690476D01*
X169400057Y-79690476D02*
X169495295Y-79642857D01*
X169495295Y-79642857D02*
X169638152Y-79642857D01*
X169638152Y-79642857D02*
X169733390Y-79690476D01*
X169733390Y-79690476D02*
X169781009Y-79738095D01*
X169781009Y-79738095D02*
X169828628Y-79833333D01*
X169828628Y-79833333D02*
X169828628Y-80214285D01*
X169400057Y-79261904D02*
X169352438Y-79214285D01*
X169352438Y-79214285D02*
X169304819Y-79119047D01*
X169304819Y-79119047D02*
X169304819Y-78880952D01*
X169304819Y-78880952D02*
X169352438Y-78785714D01*
X169352438Y-78785714D02*
X169400057Y-78738095D01*
X169400057Y-78738095D02*
X169495295Y-78690476D01*
X169495295Y-78690476D02*
X169590533Y-78690476D01*
X169590533Y-78690476D02*
X169733390Y-78738095D01*
X169733390Y-78738095D02*
X170304819Y-79309523D01*
X170304819Y-79309523D02*
X170304819Y-78690476D01*
X169304819Y-77833333D02*
X169304819Y-78023809D01*
X169304819Y-78023809D02*
X169352438Y-78119047D01*
X169352438Y-78119047D02*
X169400057Y-78166666D01*
X169400057Y-78166666D02*
X169542914Y-78261904D01*
X169542914Y-78261904D02*
X169733390Y-78309523D01*
X169733390Y-78309523D02*
X170114342Y-78309523D01*
X170114342Y-78309523D02*
X170209580Y-78261904D01*
X170209580Y-78261904D02*
X170257200Y-78214285D01*
X170257200Y-78214285D02*
X170304819Y-78119047D01*
X170304819Y-78119047D02*
X170304819Y-77928571D01*
X170304819Y-77928571D02*
X170257200Y-77833333D01*
X170257200Y-77833333D02*
X170209580Y-77785714D01*
X170209580Y-77785714D02*
X170114342Y-77738095D01*
X170114342Y-77738095D02*
X169876247Y-77738095D01*
X169876247Y-77738095D02*
X169781009Y-77785714D01*
X169781009Y-77785714D02*
X169733390Y-77833333D01*
X169733390Y-77833333D02*
X169685771Y-77928571D01*
X169685771Y-77928571D02*
X169685771Y-78119047D01*
X169685771Y-78119047D02*
X169733390Y-78214285D01*
X169733390Y-78214285D02*
X169781009Y-78261904D01*
X169781009Y-78261904D02*
X169876247Y-78309523D01*
X163458333Y-99179580D02*
X163410714Y-99227200D01*
X163410714Y-99227200D02*
X163267857Y-99274819D01*
X163267857Y-99274819D02*
X163172619Y-99274819D01*
X163172619Y-99274819D02*
X163029762Y-99227200D01*
X163029762Y-99227200D02*
X162934524Y-99131961D01*
X162934524Y-99131961D02*
X162886905Y-99036723D01*
X162886905Y-99036723D02*
X162839286Y-98846247D01*
X162839286Y-98846247D02*
X162839286Y-98703390D01*
X162839286Y-98703390D02*
X162886905Y-98512914D01*
X162886905Y-98512914D02*
X162934524Y-98417676D01*
X162934524Y-98417676D02*
X163029762Y-98322438D01*
X163029762Y-98322438D02*
X163172619Y-98274819D01*
X163172619Y-98274819D02*
X163267857Y-98274819D01*
X163267857Y-98274819D02*
X163410714Y-98322438D01*
X163410714Y-98322438D02*
X163458333Y-98370057D01*
X164410714Y-99274819D02*
X163839286Y-99274819D01*
X164125000Y-99274819D02*
X164125000Y-98274819D01*
X164125000Y-98274819D02*
X164029762Y-98417676D01*
X164029762Y-98417676D02*
X163934524Y-98512914D01*
X163934524Y-98512914D02*
X163839286Y-98560533D01*
X149849580Y-84867857D02*
X149897200Y-84915476D01*
X149897200Y-84915476D02*
X149944819Y-85058333D01*
X149944819Y-85058333D02*
X149944819Y-85153571D01*
X149944819Y-85153571D02*
X149897200Y-85296428D01*
X149897200Y-85296428D02*
X149801961Y-85391666D01*
X149801961Y-85391666D02*
X149706723Y-85439285D01*
X149706723Y-85439285D02*
X149516247Y-85486904D01*
X149516247Y-85486904D02*
X149373390Y-85486904D01*
X149373390Y-85486904D02*
X149182914Y-85439285D01*
X149182914Y-85439285D02*
X149087676Y-85391666D01*
X149087676Y-85391666D02*
X148992438Y-85296428D01*
X148992438Y-85296428D02*
X148944819Y-85153571D01*
X148944819Y-85153571D02*
X148944819Y-85058333D01*
X148944819Y-85058333D02*
X148992438Y-84915476D01*
X148992438Y-84915476D02*
X149040057Y-84867857D01*
X149944819Y-83915476D02*
X149944819Y-84486904D01*
X149944819Y-84201190D02*
X148944819Y-84201190D01*
X148944819Y-84201190D02*
X149087676Y-84296428D01*
X149087676Y-84296428D02*
X149182914Y-84391666D01*
X149182914Y-84391666D02*
X149230533Y-84486904D01*
X149040057Y-83534523D02*
X148992438Y-83486904D01*
X148992438Y-83486904D02*
X148944819Y-83391666D01*
X148944819Y-83391666D02*
X148944819Y-83153571D01*
X148944819Y-83153571D02*
X148992438Y-83058333D01*
X148992438Y-83058333D02*
X149040057Y-83010714D01*
X149040057Y-83010714D02*
X149135295Y-82963095D01*
X149135295Y-82963095D02*
X149230533Y-82963095D01*
X149230533Y-82963095D02*
X149373390Y-83010714D01*
X149373390Y-83010714D02*
X149944819Y-83582142D01*
X149944819Y-83582142D02*
X149944819Y-82963095D01*
X159482142Y-88804819D02*
X159148809Y-88328628D01*
X158910714Y-88804819D02*
X158910714Y-87804819D01*
X158910714Y-87804819D02*
X159291666Y-87804819D01*
X159291666Y-87804819D02*
X159386904Y-87852438D01*
X159386904Y-87852438D02*
X159434523Y-87900057D01*
X159434523Y-87900057D02*
X159482142Y-87995295D01*
X159482142Y-87995295D02*
X159482142Y-88138152D01*
X159482142Y-88138152D02*
X159434523Y-88233390D01*
X159434523Y-88233390D02*
X159386904Y-88281009D01*
X159386904Y-88281009D02*
X159291666Y-88328628D01*
X159291666Y-88328628D02*
X158910714Y-88328628D01*
X159815476Y-87804819D02*
X160434523Y-87804819D01*
X160434523Y-87804819D02*
X160101190Y-88185771D01*
X160101190Y-88185771D02*
X160244047Y-88185771D01*
X160244047Y-88185771D02*
X160339285Y-88233390D01*
X160339285Y-88233390D02*
X160386904Y-88281009D01*
X160386904Y-88281009D02*
X160434523Y-88376247D01*
X160434523Y-88376247D02*
X160434523Y-88614342D01*
X160434523Y-88614342D02*
X160386904Y-88709580D01*
X160386904Y-88709580D02*
X160339285Y-88757200D01*
X160339285Y-88757200D02*
X160244047Y-88804819D01*
X160244047Y-88804819D02*
X159958333Y-88804819D01*
X159958333Y-88804819D02*
X159863095Y-88757200D01*
X159863095Y-88757200D02*
X159815476Y-88709580D01*
X161053571Y-87804819D02*
X161148809Y-87804819D01*
X161148809Y-87804819D02*
X161244047Y-87852438D01*
X161244047Y-87852438D02*
X161291666Y-87900057D01*
X161291666Y-87900057D02*
X161339285Y-87995295D01*
X161339285Y-87995295D02*
X161386904Y-88185771D01*
X161386904Y-88185771D02*
X161386904Y-88423866D01*
X161386904Y-88423866D02*
X161339285Y-88614342D01*
X161339285Y-88614342D02*
X161291666Y-88709580D01*
X161291666Y-88709580D02*
X161244047Y-88757200D01*
X161244047Y-88757200D02*
X161148809Y-88804819D01*
X161148809Y-88804819D02*
X161053571Y-88804819D01*
X161053571Y-88804819D02*
X160958333Y-88757200D01*
X160958333Y-88757200D02*
X160910714Y-88709580D01*
X160910714Y-88709580D02*
X160863095Y-88614342D01*
X160863095Y-88614342D02*
X160815476Y-88423866D01*
X160815476Y-88423866D02*
X160815476Y-88185771D01*
X160815476Y-88185771D02*
X160863095Y-87995295D01*
X160863095Y-87995295D02*
X160910714Y-87900057D01*
X160910714Y-87900057D02*
X160958333Y-87852438D01*
X160958333Y-87852438D02*
X161053571Y-87804819D01*
X178624819Y-98492857D02*
X178148628Y-98826190D01*
X178624819Y-99064285D02*
X177624819Y-99064285D01*
X177624819Y-99064285D02*
X177624819Y-98683333D01*
X177624819Y-98683333D02*
X177672438Y-98588095D01*
X177672438Y-98588095D02*
X177720057Y-98540476D01*
X177720057Y-98540476D02*
X177815295Y-98492857D01*
X177815295Y-98492857D02*
X177958152Y-98492857D01*
X177958152Y-98492857D02*
X178053390Y-98540476D01*
X178053390Y-98540476D02*
X178101009Y-98588095D01*
X178101009Y-98588095D02*
X178148628Y-98683333D01*
X178148628Y-98683333D02*
X178148628Y-99064285D01*
X177720057Y-98111904D02*
X177672438Y-98064285D01*
X177672438Y-98064285D02*
X177624819Y-97969047D01*
X177624819Y-97969047D02*
X177624819Y-97730952D01*
X177624819Y-97730952D02*
X177672438Y-97635714D01*
X177672438Y-97635714D02*
X177720057Y-97588095D01*
X177720057Y-97588095D02*
X177815295Y-97540476D01*
X177815295Y-97540476D02*
X177910533Y-97540476D01*
X177910533Y-97540476D02*
X178053390Y-97588095D01*
X178053390Y-97588095D02*
X178624819Y-98159523D01*
X178624819Y-98159523D02*
X178624819Y-97540476D01*
X178624819Y-96588095D02*
X178624819Y-97159523D01*
X178624819Y-96873809D02*
X177624819Y-96873809D01*
X177624819Y-96873809D02*
X177767676Y-96969047D01*
X177767676Y-96969047D02*
X177862914Y-97064285D01*
X177862914Y-97064285D02*
X177910533Y-97159523D01*
X180604819Y-63230357D02*
X180128628Y-63563690D01*
X180604819Y-63801785D02*
X179604819Y-63801785D01*
X179604819Y-63801785D02*
X179604819Y-63420833D01*
X179604819Y-63420833D02*
X179652438Y-63325595D01*
X179652438Y-63325595D02*
X179700057Y-63277976D01*
X179700057Y-63277976D02*
X179795295Y-63230357D01*
X179795295Y-63230357D02*
X179938152Y-63230357D01*
X179938152Y-63230357D02*
X180033390Y-63277976D01*
X180033390Y-63277976D02*
X180081009Y-63325595D01*
X180081009Y-63325595D02*
X180128628Y-63420833D01*
X180128628Y-63420833D02*
X180128628Y-63801785D01*
X180604819Y-62277976D02*
X180604819Y-62849404D01*
X180604819Y-62563690D02*
X179604819Y-62563690D01*
X179604819Y-62563690D02*
X179747676Y-62658928D01*
X179747676Y-62658928D02*
X179842914Y-62754166D01*
X179842914Y-62754166D02*
X179890533Y-62849404D01*
X179604819Y-61373214D02*
X179604819Y-61849404D01*
X179604819Y-61849404D02*
X180081009Y-61897023D01*
X180081009Y-61897023D02*
X180033390Y-61849404D01*
X180033390Y-61849404D02*
X179985771Y-61754166D01*
X179985771Y-61754166D02*
X179985771Y-61516071D01*
X179985771Y-61516071D02*
X180033390Y-61420833D01*
X180033390Y-61420833D02*
X180081009Y-61373214D01*
X180081009Y-61373214D02*
X180176247Y-61325595D01*
X180176247Y-61325595D02*
X180414342Y-61325595D01*
X180414342Y-61325595D02*
X180509580Y-61373214D01*
X180509580Y-61373214D02*
X180557200Y-61420833D01*
X180557200Y-61420833D02*
X180604819Y-61516071D01*
X180604819Y-61516071D02*
X180604819Y-61754166D01*
X180604819Y-61754166D02*
X180557200Y-61849404D01*
X180557200Y-61849404D02*
X180509580Y-61897023D01*
D12*
%TO.C,C2*%
X135140000Y-75087836D02*
X135140000Y-74872164D01*
X135860000Y-75087836D02*
X135860000Y-74872164D01*
%TO.C,R11*%
X152765000Y-74272936D02*
X152765000Y-74727064D01*
X154235000Y-74272936D02*
X154235000Y-74727064D01*
%TO.C,R32*%
X158245000Y-94751141D02*
X158245000Y-94443859D01*
X159005000Y-94751141D02*
X159005000Y-94443859D01*
%TO.C,R16*%
X155977500Y-68920276D02*
X155977500Y-69429724D01*
X157022500Y-68920276D02*
X157022500Y-69429724D01*
%TO.C,AuxiliaryDriver1*%
X143125000Y-93990000D02*
X140925000Y-93990000D01*
X143125000Y-93990000D02*
X145325000Y-93990000D01*
X143125000Y-99460000D02*
X140925000Y-99460000D01*
X143125000Y-99460000D02*
X145325000Y-99460000D01*
X147365000Y-99240000D02*
X147035000Y-99000000D01*
X147365000Y-98760000D01*
X147365000Y-99240000D01*
G36*
X147365000Y-99240000D02*
G01*
X147035000Y-99000000D01*
X147365000Y-98760000D01*
X147365000Y-99240000D01*
G37*
%TO.C,R24*%
X175620000Y-106696359D02*
X175620000Y-107003641D01*
X176380000Y-106696359D02*
X176380000Y-107003641D01*
%TO.C,U5*%
X151862500Y-78715000D02*
X151062500Y-78715000D01*
X151862500Y-78715000D02*
X152662500Y-78715000D01*
X151862500Y-81835000D02*
X151062500Y-81835000D01*
X151862500Y-81835000D02*
X152662500Y-81835000D01*
X153402500Y-82115000D02*
X152922500Y-82115000D01*
X153162500Y-81785000D01*
X153402500Y-82115000D01*
G36*
X153402500Y-82115000D02*
G01*
X152922500Y-82115000D01*
X153162500Y-81785000D01*
X153402500Y-82115000D01*
G37*
%TO.C,R2*%
X158102500Y-97842224D02*
X158102500Y-97332776D01*
X159147500Y-97842224D02*
X159147500Y-97332776D01*
%TO.C,U2*%
X165025000Y-74240000D02*
X163075000Y-74240000D01*
X165025000Y-74240000D02*
X166975000Y-74240000D01*
X165025000Y-79360000D02*
X163075000Y-79360000D01*
X165025000Y-79360000D02*
X166975000Y-79360000D01*
X162325000Y-74335000D02*
X162085000Y-74005000D01*
X162565000Y-74005000D01*
X162325000Y-74335000D01*
G36*
X162325000Y-74335000D02*
G01*
X162085000Y-74005000D01*
X162565000Y-74005000D01*
X162325000Y-74335000D01*
G37*
%TO.C,ToggleSwitch1*%
X191100000Y-78800000D02*
X193400000Y-78800000D01*
X191100000Y-80000000D02*
X191100000Y-78800000D01*
X191100000Y-81800000D02*
X191100000Y-82500000D01*
X191100000Y-84300000D02*
X191100000Y-85000000D01*
X191100000Y-88000000D02*
X191100000Y-86800000D01*
X193400000Y-88000000D02*
X191100000Y-88000000D01*
%TO.C,Q1*%
X160710000Y-62800000D02*
X160710000Y-59200000D01*
X156260000Y-61000000D02*
G75*
G02*
X160698478Y-59161522I2600000J0D01*
G01*
X160698478Y-62838478D02*
G75*
G02*
X156259999Y-61000000I-1838478J1838478D01*
G01*
%TO.C,R10*%
X149765000Y-92227064D02*
X149765000Y-91772936D01*
X151235000Y-92227064D02*
X151235000Y-91772936D01*
%TO.C,R22*%
X165265000Y-69272936D02*
X165265000Y-69727064D01*
X166735000Y-69272936D02*
X166735000Y-69727064D01*
%TO.C,R20*%
X155977500Y-72332776D02*
X155977500Y-72842224D01*
X157022500Y-72332776D02*
X157022500Y-72842224D01*
%TO.C,R28*%
X174765000Y-79227064D02*
X174765000Y-78772936D01*
X176235000Y-79227064D02*
X176235000Y-78772936D01*
%TO.C,U3*%
X181000000Y-101300000D02*
X179050000Y-101300000D01*
X181000000Y-101300000D02*
X182950000Y-101300000D01*
X181000000Y-106420000D02*
X179050000Y-106420000D01*
X181000000Y-106420000D02*
X182950000Y-106420000D01*
X178287500Y-101300000D02*
X178047500Y-100970000D01*
X178527500Y-100970000D01*
X178287500Y-101300000D01*
G36*
X178287500Y-101300000D02*
G01*
X178047500Y-100970000D01*
X178527500Y-100970000D01*
X178287500Y-101300000D01*
G37*
%TO.C,J3*%
X191450000Y-99010000D02*
X189750000Y-99010000D01*
X191450000Y-108350000D02*
X189750000Y-108350000D01*
%TO.C,C6*%
X167590000Y-91648752D02*
X167590000Y-90226248D01*
X169410000Y-91648752D02*
X169410000Y-90226248D01*
%TO.C,C4*%
X134640000Y-92412164D02*
X134640000Y-92627836D01*
X135360000Y-92412164D02*
X135360000Y-92627836D01*
%TO.C,C13*%
X167880000Y-85911969D02*
X167880000Y-85708031D01*
X169120000Y-85911969D02*
X169120000Y-85708031D01*
%TO.C,R29*%
X145272936Y-91265000D02*
X145727064Y-91265000D01*
X145272936Y-92735000D02*
X145727064Y-92735000D01*
%TO.C,C9*%
X140229469Y-91380000D02*
X140025531Y-91380000D01*
X140229469Y-92620000D02*
X140025531Y-92620000D01*
%TO.C,U1*%
X170525000Y-59535000D02*
X168575000Y-59535000D01*
X170525000Y-59535000D02*
X172475000Y-59535000D01*
X170525000Y-64655000D02*
X168575000Y-64655000D01*
X170525000Y-64655000D02*
X172475000Y-64655000D01*
X167825000Y-59630000D02*
X167585000Y-59300000D01*
X168065000Y-59300000D01*
X167825000Y-59630000D01*
G36*
X167825000Y-59630000D02*
G01*
X167585000Y-59300000D01*
X168065000Y-59300000D01*
X167825000Y-59630000D01*
G37*
%TO.C,R13*%
X158977500Y-66342224D02*
X158977500Y-65832776D01*
X160022500Y-66342224D02*
X160022500Y-65832776D01*
%TO.C,R27*%
X184772936Y-98625000D02*
X185227064Y-98625000D01*
X184772936Y-100095000D02*
X185227064Y-100095000D01*
%TO.C,C10*%
X141229469Y-75380000D02*
X141025531Y-75380000D01*
X141229469Y-76620000D02*
X141025531Y-76620000D01*
%TO.C,JST1*%
X185890000Y-65110000D02*
X185890000Y-66360000D01*
X185890000Y-66360000D02*
X187140000Y-66360000D01*
X185990000Y-64300000D02*
X185990000Y-64600000D01*
X185990000Y-64600000D02*
X186190000Y-64600000D01*
X186090000Y-64300000D02*
X186090000Y-64600000D01*
X186190000Y-59940000D02*
X186190000Y-66060000D01*
X186190000Y-63500000D02*
X186800000Y-63500000D01*
X186190000Y-64300000D02*
X185990000Y-64300000D01*
X186190000Y-66060000D02*
X190910000Y-66060000D01*
X186800000Y-60550000D02*
X186800000Y-62500000D01*
X186800000Y-62500000D02*
X186190000Y-62500000D01*
X186800000Y-63500000D02*
X186800000Y-65450000D01*
X186800000Y-65450000D02*
X190300000Y-65450000D01*
X187500000Y-59940000D02*
X187500000Y-60550000D01*
X187500000Y-66060000D02*
X187500000Y-65450000D01*
X188800000Y-59940000D02*
X188800000Y-60550000D01*
X188800000Y-66060000D02*
X188800000Y-65450000D01*
X189800000Y-62900000D02*
X190300000Y-62900000D01*
X189800000Y-63100000D02*
X189800000Y-62900000D01*
X190300000Y-60550000D02*
X186800000Y-60550000D01*
X190300000Y-63000000D02*
X189800000Y-63000000D01*
X190300000Y-63100000D02*
X189800000Y-63100000D01*
X190300000Y-65450000D02*
X190300000Y-60550000D01*
X190910000Y-59940000D02*
X186190000Y-59940000D01*
X190910000Y-66060000D02*
X190910000Y-59940000D01*
%TO.C,L1*%
X167796267Y-97990000D02*
X167453733Y-97990000D01*
X167796267Y-99010000D02*
X167453733Y-99010000D01*
%TO.C,U4*%
X162052500Y-92915000D02*
X162752500Y-92915000D01*
X162052500Y-93615000D02*
X162052500Y-92915000D01*
X162052500Y-96435000D02*
X162052500Y-96835000D01*
X162752500Y-97135000D02*
X162292500Y-97135000D01*
X166272500Y-92915000D02*
X165572500Y-92915000D01*
X166272500Y-93615000D02*
X166272500Y-92915000D01*
X166272500Y-96435000D02*
X166272500Y-97135000D01*
X166272500Y-97135000D02*
X165572500Y-97135000D01*
X162052500Y-97135000D02*
X161722500Y-97375000D01*
X161722500Y-96895000D01*
X162052500Y-97135000D01*
G36*
X162052500Y-97135000D02*
G01*
X161722500Y-97375000D01*
X161722500Y-96895000D01*
X162052500Y-97135000D01*
G37*
%TO.C,C5*%
X180770531Y-95240000D02*
X180974469Y-95240000D01*
X180770531Y-96480000D02*
X180974469Y-96480000D01*
%TO.C,C11*%
X155880000Y-82123031D02*
X155880000Y-82326969D01*
X157120000Y-82123031D02*
X157120000Y-82326969D01*
%TO.C,R25*%
X123765000Y-77272936D02*
X123765000Y-77727064D01*
X125235000Y-77272936D02*
X125235000Y-77727064D01*
D11*
%TO.C,JP1*%
X183100000Y-87180000D02*
X183600000Y-86680000D01*
X183100000Y-90780000D02*
X183100000Y-87180000D01*
X183600000Y-86680000D02*
X184400000Y-86680000D01*
X183600000Y-91280000D02*
X183100000Y-90780000D01*
X184400000Y-86680000D02*
X184900000Y-87180000D01*
X184400000Y-91280000D02*
X183600000Y-91280000D01*
X184900000Y-87180000D02*
X184900000Y-90780000D01*
X184900000Y-90780000D02*
X184400000Y-91280000D01*
D12*
%TO.C,LoadSwitch2*%
X121285000Y-75865000D02*
X121285000Y-75000000D01*
X121500000Y-74785000D02*
X122365000Y-74785000D01*
X122365000Y-74785000D02*
X122365000Y-75865000D01*
X122365000Y-75865000D02*
X121285000Y-75865000D01*
X121285000Y-74785000D02*
X120785000Y-74785000D01*
X121285000Y-74285000D01*
X121285000Y-74785000D01*
G36*
X121285000Y-74785000D02*
G01*
X120785000Y-74785000D01*
X121285000Y-74285000D01*
X121285000Y-74785000D01*
G37*
%TO.C,R19*%
X151754724Y-60477500D02*
X151245276Y-60477500D01*
X151754724Y-61522500D02*
X151245276Y-61522500D01*
%TO.C,R23*%
X173765000Y-97587064D02*
X173765000Y-97132936D01*
X175235000Y-97587064D02*
X175235000Y-97132936D01*
%TO.C,R9*%
X152265000Y-92314564D02*
X152265000Y-91860436D01*
X153735000Y-92314564D02*
X153735000Y-91860436D01*
%TO.C,PrimaryDriver1*%
X144125000Y-67990000D02*
X141925000Y-67990000D01*
X144125000Y-67990000D02*
X146325000Y-67990000D01*
X144125000Y-73460000D02*
X141925000Y-73460000D01*
X144125000Y-73460000D02*
X146325000Y-73460000D01*
X148365000Y-73240000D02*
X148035000Y-73000000D01*
X148365000Y-72760000D01*
X148365000Y-73240000D01*
G36*
X148365000Y-73240000D02*
G01*
X148035000Y-73000000D01*
X148365000Y-72760000D01*
X148365000Y-73240000D01*
G37*
%TO.C,R18*%
X123765000Y-95772936D02*
X123765000Y-96227064D01*
X125235000Y-95772936D02*
X125235000Y-96227064D01*
%TO.C,R14*%
X150265000Y-74727064D02*
X150265000Y-74272936D01*
X151735000Y-74727064D02*
X151735000Y-74272936D01*
%TO.C,J1*%
X127670000Y-63430000D02*
X129000000Y-63430000D01*
X127670000Y-64760000D02*
X127670000Y-63430000D01*
X127670000Y-66030000D02*
X127670000Y-104190000D01*
X127670000Y-66030000D02*
X130270000Y-66030000D01*
X127670000Y-104190000D02*
X132870000Y-104190000D01*
X130270000Y-63430000D02*
X132870000Y-63430000D01*
X130270000Y-66030000D02*
X130270000Y-63430000D01*
X132870000Y-63430000D02*
X132870000Y-104190000D01*
%TO.C,R1*%
X162765000Y-69727064D02*
X162765000Y-69272936D01*
X164235000Y-69727064D02*
X164235000Y-69272936D01*
%TO.C,R31*%
X145272936Y-75265000D02*
X145727064Y-75265000D01*
X145272936Y-76735000D02*
X145727064Y-76735000D01*
%TO.C,LoadSwitch1*%
X121285000Y-94365000D02*
X121285000Y-93500000D01*
X121500000Y-93285000D02*
X122365000Y-93285000D01*
X122365000Y-93285000D02*
X122365000Y-94365000D01*
X122365000Y-94365000D02*
X121285000Y-94365000D01*
X121285000Y-93285000D02*
X120785000Y-93285000D01*
X121285000Y-92785000D01*
X121285000Y-93285000D01*
G36*
X121285000Y-93285000D02*
G01*
X120785000Y-93285000D01*
X121285000Y-92785000D01*
X121285000Y-93285000D01*
G37*
%TO.C,R26*%
X170765000Y-79227064D02*
X170765000Y-78772936D01*
X172235000Y-79227064D02*
X172235000Y-78772936D01*
%TO.C,C1*%
X163363748Y-99765000D02*
X163886252Y-99765000D01*
X163363748Y-101235000D02*
X163886252Y-101235000D01*
%TO.C,C12*%
X147380000Y-84123031D02*
X147380000Y-84326969D01*
X148620000Y-84123031D02*
X148620000Y-84326969D01*
%TO.C,R30*%
X159897936Y-89265000D02*
X160352064Y-89265000D01*
X159897936Y-90735000D02*
X160352064Y-90735000D01*
%TO.C,R21*%
X176620000Y-97696359D02*
X176620000Y-98003641D01*
X177380000Y-97696359D02*
X177380000Y-98003641D01*
%TO.C,R15*%
X177765000Y-62360436D02*
X177765000Y-62814564D01*
X179235000Y-62360436D02*
X179235000Y-62814564D01*
%TD*%
M02*
