M48
; DRILL file {KiCad 9.0.0} date 2025-03-28T01:08:58+0200
; FORMAT={-:-/ absolute / metric / decimal}
; #@! TF.CreationDate,2025-03-28T01:08:58+02:00
; #@! TF.GenerationSoftware,Kicad,Pcbnew,9.0.0
; #@! TF.FileFunction,Plated,1,2,PTH
FMAT,2
METRIC
; #@! TA.AperFunction,Plated,PTH,ComponentDrill
T1C0.200
; #@! TA.AperFunction,Plated,PTH,ViaDrill
T2C0.300
; #@! TA.AperFunction,Plated,PTH,ComponentDrill
T3C0.300
; #@! TA.AperFunction,Plated,PTH,ComponentDrill
T4C0.600
; #@! TA.AperFunction,Plated,PTH,ComponentDrill
T5C0.750
; #@! TA.AperFunction,Plated,PTH,ComponentDrill
T6C0.800
; #@! TA.AperFunction,Plated,PTH,ComponentDrill
T7C1.000
%
G90
G05
T1
X163.062Y-93.925
X163.062Y-95.025
X163.062Y-96.125
X164.162Y-93.925
X164.162Y-95.025
X164.162Y-96.125
X164.325Y-75.6
X164.325Y-76.8
X164.325Y-78.0
X165.262Y-93.925
X165.262Y-95.025
X165.262Y-96.125
X165.725Y-75.6
X165.725Y-76.8
X165.725Y-78.0
T2
X116.9Y-84.5
X117.5Y-73.0
X118.1Y-84.5
X120.0Y-73.0
X120.0Y-79.5
X122.5Y-90.5
X122.5Y-92.0
X124.5Y-90.5
X133.4Y-94.5
X133.4Y-95.5
X133.5Y-67.5
X134.0Y-89.5
X134.5Y-80.0
X134.624Y-73.224
X134.9Y-81.5
X134.9Y-85.0
X135.0Y-67.85
X135.1Y-69.7
X135.1Y-95.7
X135.1Y-98.5
X135.5Y-73.65
X135.537Y-97.75
X135.6Y-99.125
X135.6Y-71.75
X136.1Y-85.0
X136.5Y-71.75
X136.5Y-73.65
X136.5Y-80.0
X136.5Y-81.5
X137.0Y-93.25
X137.6Y-89.5
X137.7Y-95.7
X137.845Y-93.25
X138.5Y-93.85
X138.5Y-95.7
X138.5Y-96.5
X139.5Y-71.75
X139.5Y-73.65
X141.25Y-73.05
X143.5Y-80.0
X143.5Y-81.5
X144.5Y-86.9
X144.5Y-90.1
X145.5Y-80.0
X145.5Y-81.5
X147.9Y-63.6
X148.0Y-97.75
X148.4Y-68.5
X148.5Y-95.8
X148.878Y-69.7
X148.9Y-101.0
X148.9Y-105.6
X148.9Y-106.4
X149.0Y-71.75
X149.0Y-79.0
X149.0Y-93.9
X149.382Y-99.088
X149.5Y-71.0
X149.54Y-97.781
X150.1Y-63.5
X150.6Y-106.0
X150.7Y-68.4
X150.7Y-71.0
X150.7Y-71.8
X151.215Y-105.488
X151.3Y-69.5
X152.0Y-101.0
X153.0Y-100.0
X157.0Y-66.5
X157.0Y-103.4
X157.0Y-105.0
X158.0Y-76.4
X158.8Y-74.5
X159.4Y-75.5
X159.4Y-83.0
X160.6Y-74.5
X160.6Y-75.5
X160.6Y-83.0
X162.9Y-82.4
X163.0Y-84.0
X164.125Y-92.0
X166.125Y-94.025
X167.5Y-104.5
X168.0Y-58.5
X169.0Y-71.0
X169.0Y-73.0
X172.5Y-107.86
X173.5Y-66.5
X173.5Y-104.0
X175.0Y-67.5
X176.0Y-104.0
X177.0Y-84.5
X177.0Y-86.0
X180.5Y-84.0
X185.5Y-105.86
X186.0Y-103.36
X187.0Y-102.36
X187.0Y-105.36
T3
X141.925Y-95.525
X141.925Y-97.925
X142.925Y-69.525
X142.925Y-71.925
X144.325Y-95.525
X144.325Y-97.925
X145.325Y-69.525
X145.325Y-71.925
T5
X157.59Y-61.0
X158.86Y-59.73
X158.86Y-62.27
X188.0Y-62.0
X188.0Y-64.0
T6
X184.0Y-87.71
X184.0Y-90.25
T7
X129.0Y-64.76
X129.0Y-67.3
X129.0Y-69.84
X129.0Y-72.38
X129.0Y-74.92
X129.0Y-77.46
X129.0Y-80.0
X129.0Y-82.54
X129.0Y-85.08
X129.0Y-87.62
X129.0Y-90.16
X129.0Y-92.7
X129.0Y-95.24
X129.0Y-97.78
X129.0Y-100.32
X129.0Y-102.86
X131.54Y-64.76
X131.54Y-67.3
X131.54Y-69.84
X131.54Y-72.38
X131.54Y-74.92
X131.54Y-77.46
X131.54Y-80.0
X131.54Y-82.54
X131.54Y-85.08
X131.54Y-87.62
X131.54Y-90.16
X131.54Y-92.7
X131.54Y-95.24
X131.54Y-97.78
X131.54Y-100.32
X131.54Y-102.86
T4
G00X188.4Y-99.36
M15
G01X189.0Y-99.36
M16
G05
G00X188.4Y-108.0
M15
G01X189.0Y-108.0
M16
G05
G00X192.2Y-99.36
M15
G01X192.8Y-99.36
M16
G05
G00X192.2Y-108.0
M15
G01X192.8Y-108.0
M16
G05
M30
